<svg width="90" height="90" viewBox="0 0 90 90" fill="none" xmlns="http://www.w3.org/2000/svg">
<circle cx="45" cy="45" r="45" fill="#316A4E"/>
<path fill-rule="evenodd" clip-rule="evenodd" d="M50.1961 21.7315C48.5548 20.0894 46.3282 19.1667 44.0064 19.1667C41.6846 19.1667 39.458 20.0894 37.8167 21.7315L36.13 23.4182L34.4433 21.7315C31.0248 18.313 25.4824 18.313 22.0639 21.7315C18.6454 25.1501 18.6454 30.6927 22.0639 34.1112L23.7505 35.7979L36.13 48.1776L48.5095 35.7979L50.1961 34.1112C51.8383 32.4698 52.7609 30.2432 52.7609 27.9214C52.7609 25.5996 51.8383 23.3729 50.1961 21.7315Z" stroke="#65B78F" stroke-width="2" stroke-linecap="round" stroke-linejoin="round"/>
<path fill-rule="evenodd" clip-rule="evenodd" d="M70.4997 44.1124C70.4997 47.7859 67.5213 50.7646 63.8475 50.7646C60.1736 50.7646 57.1953 47.7859 57.1953 44.1124C57.1953 40.4389 60.1736 37.4602 63.8475 37.4602C67.5213 37.4602 70.4997 40.4389 70.4997 44.1124Z" stroke="#65B78F" stroke-width="2" stroke-linecap="round" stroke-linejoin="round"/>
<path d="M63.8463 50.7646V57.3243C63.8463 64.6713 57.6415 70.6287 49.9876 70.6287C42.3337 70.6287 36.1289 64.6713 36.1289 57.3243V47.4385" stroke="#65B78F" stroke-width="2" stroke-linecap="round" stroke-linejoin="round"/>
<path fill-rule="evenodd" clip-rule="evenodd" d="M66.2496 44.1124C66.2496 45.4416 65.1743 46.5146 63.8475 46.5146C62.5207 46.5146 61.4453 45.4416 61.4453 44.1124C61.4453 42.7832 62.5207 41.7102 63.8475 41.7102C65.1743 41.7102 66.2496 42.7832 66.2496 44.1124Z" stroke="#65B78F" stroke-width="2" stroke-linecap="round" stroke-linejoin="round"/>
</svg>
