<svg width="90" height="90" viewBox="0 0 90 90" fill="none" xmlns="http://www.w3.org/2000/svg">
<circle cx="45" cy="45" r="45" fill="#316A4E"/>
<mask id="mask0" mask-type="alpha" maskUnits="userSpaceOnUse" x="0" y="0" width="90" height="90">
<circle cx="45" cy="45" r="45" fill="#316A4E"/>
</mask>
<g mask="url(#mask0)">
</g>
<path fill-rule="evenodd" clip-rule="evenodd" d="M54.9461 68.4466C54.5687 68.3712 54.1996 68.276 53.8436 68.1644C53.4794 68.0512 53.1283 67.9184 52.7887 67.7691C50.907 66.9685 49.3173 65.7102 47.6701 64.4879C46.3642 63.5167 45.06 62.5488 43.7541 61.5808C43.8837 60.8098 44.3398 60.4571 45.3011 60.5752C46.1001 60.6736 46.8941 60.8262 47.6898 60.9509C48.9366 61.1461 50.9627 61.8893 52.1522 61.2823C52.582 61.0624 52.6853 60.5735 52.6164 60.1437C52.518 59.5186 52.0078 59.1462 51.5812 58.7213C50.7806 57.9191 49.9833 57.1218 49.1827 56.3245L43.7803 50.9221C43.38 50.5201 42.5598 49.9295 42.5598 49.27C42.5598 48.1429 43.8263 47.933 44.5498 48.4514C44.6367 48.535 44.7204 48.6154 44.7975 48.6925C44.9763 48.8714 45.1519 49.0469 45.3274 49.2224C46.8482 50.7432 48.369 52.2657 49.8898 53.7865C50.8102 54.7052 52.2358 53.2796 51.3171 52.3608L47.4306 48.4743C47.4306 48.4743 47.4306 48.4743 47.4273 48.4743C47.3404 48.3841 47.2518 48.2955 47.1648 48.2086C46.6546 47.6984 46.169 47.1225 45.5899 46.691C45.5292 46.6484 45.4685 46.6074 45.4061 46.5664C44.722 45.9249 44.0609 45.2621 43.5047 44.5485C42.6287 43.4214 43.7656 41.9465 45.0501 42.8505C45.2667 43.0014 45.4685 43.1884 45.667 43.3869C46.4742 44.5993 47.8391 45.6362 48.7217 46.5188C49.2861 47.0848 49.8537 47.6524 50.4214 48.2201C51.3335 49.1306 52.244 50.0444 53.1578 50.9565C54.0765 51.8769 55.5022 50.4496 54.5835 49.5309C53.5056 48.453 52.4278 47.3768 51.3516 46.2989C50.044 44.9881 48.7332 43.6806 47.424 42.3731C46.5496 41.246 47.6865 39.7711 48.9744 40.6751C49.5847 41.1082 50.1179 41.8218 50.6461 42.3501C51.8782 43.5805 53.1086 44.8126 54.3407 46.0463C54.4342 46.1349 54.5293 46.1989 54.6261 46.2448C55.1167 46.737 55.6056 47.2259 56.0961 47.7164C56.5686 48.1889 57.1723 48.0412 57.5283 47.6623C57.8581 47.3046 57.968 46.7435 57.5283 46.2957C57.525 46.294 57.525 46.294 57.5217 46.2907C56.3258 45.0915 55.1282 43.8939 53.9289 42.6963C53.8026 42.5683 53.6352 42.4387 53.5253 42.2927C52.7313 41.2296 53.7386 39.9303 54.9264 40.7686C55.179 40.9491 55.3988 41.2427 55.617 41.4626C56.2536 42.0991 56.8901 42.7356 57.5283 43.3722C58.1977 44.0432 58.8736 44.7142 59.5446 45.3884C60.9669 46.8092 62.3877 48.2299 63.81 49.6523C66.5678 52.4101 69.6816 54.9579 69.4995 59.2791C69.2059 66.286 61.1146 69.7131 54.9461 68.4466ZM24.6382 60.7507C22.4694 57.0332 21.9247 53.0056 21.3078 48.8484C20.8928 46.0479 20.4793 43.2458 20.0643 40.4454C21.3078 39.4086 22.8237 38.9738 23.8983 40.7079C24.2723 41.3133 24.5611 41.9843 24.8859 42.6126C25.5192 43.8282 26.1508 45.0456 26.784 46.2612C27.1647 46.9929 27.4846 47.9444 27.9948 48.5925C28.3574 49.0551 28.7002 49.0813 29.2121 49.2405C29.9766 49.48 30.6935 49.8573 31.3629 50.2954C34.3126 52.2329 35.712 55.578 36.2698 58.9477C36.4831 60.2241 38.4288 59.6827 38.2155 58.4129C37.6758 55.1662 36.3748 51.9802 33.8943 49.7294C33.4366 49.3127 32.8476 48.8221 32.2061 48.3874V32.4033C32.2061 30.4904 32.0503 28.4988 32.2061 26.5924C32.4506 23.6345 36.7669 23.5984 37.0803 26.5055C37.0868 27.4734 37.0917 28.4381 37.0917 29.4044V38.8327C37.0917 40.1288 39.108 40.132 39.108 38.8327V29.4273C39.108 28.4594 39.1835 27.4488 39.108 26.4743V23.2473C39.108 22.4959 39.0736 21.738 39.108 20.9899C39.1851 19.2115 40.9865 18.0451 42.6598 18.8178C43.7574 19.3247 44.0658 20.6815 44.115 22.1153C44.0396 22.427 44.0002 22.7551 43.9936 23.0915C43.9444 25.8525 43.9936 28.6202 43.9936 31.3796V39.3249C43.9936 40.0976 44.7056 40.4109 45.2815 40.2666C45.2273 40.3814 45.1814 40.5028 45.1437 40.6275C44.8779 40.5406 44.5957 40.4913 44.2824 40.4913C42.7271 40.4913 41.2998 41.7792 41.1079 43.3115C40.9668 44.4582 41.582 45.4836 42.4039 46.4007C42.0988 46.5467 41.81 46.7435 41.5541 46.9929C39.7741 48.7335 40.7158 50.7072 42.1726 52.1673C43.7721 53.7652 45.3733 55.3647 46.9729 56.9643L49.1532 59.1446C47.8998 58.9428 46.6497 58.741 45.3963 58.554C43.4719 58.262 41.8478 59.4432 41.7067 61.4348C41.6312 62.5143 42.1381 62.8802 42.919 63.456C44.8926 64.9227 46.8515 66.4156 48.8448 67.856C49.5273 68.3515 50.2475 68.7862 50.9972 69.157C42.2595 74.8727 29.614 69.2899 24.6382 60.7507ZM46.0099 25.4457C46.0099 24.527 46.0919 23.4786 46.0935 22.4303C46.4692 20.9669 48.0639 20.1023 49.5617 20.7963C51.6337 21.7528 50.8938 25.7475 50.8938 27.5604V35.1053C50.8938 35.271 50.9283 35.4154 50.9857 35.5401C50.9874 36.0241 50.9906 36.508 50.9906 36.9887V38.9853C50.9906 39.4627 51.2646 39.7662 51.6108 39.8925C51.5353 40.0074 51.4697 40.132 51.4123 40.2617C51.2941 40.1468 51.1744 40.0287 51.0579 39.9106C50.2442 39.0969 49.4501 38.3176 48.2017 38.3176C47.3814 38.3176 46.5956 38.6769 46.0099 39.2445V25.4457ZM53.0331 29.6111C53.2694 27.7769 55.4645 26.7877 56.8672 28.1821C57.5906 28.9024 57.5283 29.8194 57.5283 30.7349V40.5209C57.023 40.0074 56.5226 39.4086 55.9222 38.9968C55.0232 38.3832 53.924 38.3422 53.0069 38.7294V30.7086C53.0069 30.3428 52.9872 29.9736 53.0331 29.6111ZM68.3183 51.3092C65.4326 48.3447 62.4795 45.4409 59.5446 42.5289V35.837C59.5446 32.7052 60.5437 27.3241 56.8934 25.8345C55.4136 25.2291 54.0076 25.4916 52.9413 26.2643C53.0331 23.9282 53.2202 21.1572 51.3909 19.5987C49.588 18.0631 47.2862 18.3076 45.731 19.561C45.4915 18.8178 45.1092 18.1484 44.4891 17.6218C41.5098 15.0839 37.1557 17.4085 37.0917 21.1129C37.0803 21.7413 37.0737 22.3696 37.0737 22.9963C36.2157 22.473 35.1641 22.2285 34.0879 22.3319C31.8206 22.5501 30.2785 24.417 30.1899 26.6318C30.1571 27.4619 30.1899 28.297 30.1899 29.1271V47.362C29.9815 47.2981 29.7781 47.2505 29.573 47.2242C29.5205 47.1455 29.4697 47.0618 29.4319 46.9896C28.8955 45.9593 28.3606 44.9274 27.8242 43.8988C26.9662 42.2435 26.2049 39.9467 24.8285 38.6227C23.6932 37.5301 21.9673 37.1938 20.4958 37.7204C19.641 38.0288 18.0759 39.023 17.984 40.0517C17.943 40.5258 18.1415 41.1344 18.2121 41.5987C18.3761 42.7159 18.5435 43.8365 18.7075 44.9537C19.4589 50.0329 19.7903 55.4451 22.0313 60.1388C25.6783 67.7723 33.4284 72.9024 41.856 73.4126C45.9984 73.6636 49.9948 72.425 53.1431 70.0331C56.0288 70.9633 59.1672 71.0354 62.1252 70.1397C66.2496 68.8929 70.1508 65.784 71.2074 61.4594C72.1146 57.7583 70.9482 54.0113 68.3183 51.3092Z" fill="#65B78F"/>
</svg>
