<svg width="184" height="170" viewBox="0 0 184 170" fill="none" xmlns="http://www.w3.org/2000/svg">
<path fill-rule="evenodd" clip-rule="evenodd" d="M53.1076 42.0079C64.1666 30.8337 68.9517 13.2896 83.3778 7.08231C99.2252 0.263385 118.231 0.317564 134.058 7.17605C150.195 14.1693 161.211 29.1956 169.845 44.5531C178.323 59.6325 185.98 76.7604 182.74 93.767C179.624 110.123 166.006 122.192 153.065 132.628C142.542 141.115 128.298 141.367 116.217 147.417C102.918 154.077 93.4467 171.692 78.6955 169.868C64.0779 168.061 60.215 147.619 48.2455 139.015C33.7 128.559 7.64478 131.416 1.66969 114.497C-4.13884 98.049 13.0557 82.1609 23.1457 67.9416C30.9531 56.939 43.6218 51.5924 53.1076 42.0079Z" fill="#F9F9F9"/>
<path d="M82.4619 12.1957C82.4619 6.71825 86.9036 2.27661 92.381 2.27661C97.8608 2.27661 102.302 6.71825 102.302 12.1957" stroke="#0D193F" stroke-width="2" stroke-linecap="round" stroke-linejoin="round"/>
<path fill-rule="evenodd" clip-rule="evenodd" d="M66.1843 37.475H118.578V19.5559H66.1843V37.475Z" stroke="#0D193F" stroke-width="2" stroke-linecap="round" stroke-linejoin="round"/>
<path d="M142.257 136.179V158.114H41.7769V25.3158H55.12" stroke="#0D193F" stroke-width="2" stroke-linecap="round" stroke-linejoin="round"/>
<path d="M127.857 25.3158H142.256V144.046" stroke="#0D193F" stroke-width="2" stroke-linecap="round" stroke-linejoin="round"/>
<path fill-rule="evenodd" clip-rule="evenodd" d="M77.4946 67.4442H125.303H77.4946Z" stroke="#2D995E" stroke-width="2" stroke-linecap="round" stroke-linejoin="round"/>
<path fill-rule="evenodd" clip-rule="evenodd" d="M77.4946 96.5801H125.303H77.4946Z" stroke="#2D995E" stroke-width="2" stroke-linecap="round" stroke-linejoin="round"/>
<path fill-rule="evenodd" clip-rule="evenodd" d="M77.4946 125.716H125.303H77.4946Z" stroke="#2D995E" stroke-width="2" stroke-linecap="round" stroke-linejoin="round"/>
<path d="M68.1666 62L58.9999 71.1667L54.8333 67" stroke="#2D995E" stroke-width="2" stroke-linecap="round" stroke-linejoin="round"/>
<path d="M68.1666 92L58.9999 101.167L54.8333 97" stroke="#2D995E" stroke-width="2" stroke-linecap="round" stroke-linejoin="round"/>
<path d="M68.1666 122L58.9999 131.167L54.8333 127" stroke="#2D995E" stroke-width="2" stroke-linecap="round" stroke-linejoin="round"/>
</svg>
