<svg width="85" height="65" viewBox="0 0 85 65" fill="none" xmlns="http://www.w3.org/2000/svg">
<path d="M27.2637 20.3853C27.2613 20.4797 27.1922 20.8776 27.2693 20.4582C27.2469 20.5805 27.2058 20.6984 27.1649 20.8154C27.2979 20.4343 27.1608 20.7797 27.112 20.8618C26.9066 21.2071 27.3385 20.6156 27.0703 20.9125C27.0137 20.9752 26.7069 21.2164 27.0351 20.9726C26.9376 21.045 26.83 21.1024 26.7232 21.1594C27.073 20.973 26.7514 21.1399 26.6535 21.1687C26.4715 21.2066 26.4925 21.21 26.7163 21.1787C26.631 21.1877 26.5455 21.1922 26.4597 21.1922C26.3623 21.1947 25.9713 21.1207 26.3871 21.1978C26.2652 21.1753 26.1477 21.134 26.0312 21.093C26.4109 21.2264 26.0667 21.0889 25.9849 21.0399C25.6408 20.8338 26.2302 21.2671 25.9343 20.9981C25.8719 20.9413 25.6315 20.6335 25.8745 20.9628C25.8022 20.8649 25.7451 20.7569 25.6883 20.6497C25.8741 21.0008 25.7078 20.678 25.679 20.5798C25.6413 20.3972 25.6379 20.4182 25.6691 20.6428C25.6602 20.5572 25.6557 20.4714 25.6557 20.3853C25.6532 20.2876 25.7269 19.8952 25.6501 20.3124C25.6725 20.1901 25.7136 20.0722 25.7545 19.9552C25.6215 20.3363 25.7586 19.9909 25.8074 19.9088C26.0128 19.5635 25.581 20.155 25.8491 19.8581C25.9057 19.7954 26.2125 19.5542 25.8843 19.798C25.9818 19.7256 26.0894 19.6682 26.1963 19.6112C25.8465 19.7976 26.1681 19.6307 26.266 19.6019C26.448 19.564 26.427 19.5606 26.2032 19.5919C26.2885 19.5829 26.374 19.5784 26.4597 19.5784C26.5571 19.5759 26.9482 19.6499 26.5324 19.5728C26.6543 19.5953 26.7718 19.6366 26.8883 19.6776C26.5086 19.5442 26.8528 19.6817 26.9346 19.7307C27.2787 19.9368 26.6892 19.5034 26.9852 19.7725C27.0476 19.8293 27.288 20.1371 27.045 19.8078C27.1172 19.9057 27.1744 20.0137 27.2311 20.1209C27.0454 19.7698 27.2117 20.0926 27.2405 20.1908C27.2782 20.3734 27.2816 20.3524 27.2504 20.1278C27.2592 20.2134 27.2637 20.2993 27.2637 20.3853C27.2869 21.2753 27.9867 22.019 28.8917 22.019C29.7617 22.019 30.5429 21.2759 30.5198 20.3853C30.4611 18.1274 28.7096 16.3698 26.4597 16.3109C24.2106 16.252 22.4561 18.2163 22.3997 20.3853C22.341 22.6424 24.2986 24.403 26.4597 24.4596C28.7089 24.5186 30.4633 22.5542 30.5198 20.3853C30.5429 19.4946 29.7617 18.7515 28.8917 18.7515C27.9867 18.7515 27.2869 19.4952 27.2637 20.3853Z" fill="#2D995E"/>
<path d="M15.0998 20.3853C15.0973 20.4797 15.0282 20.8776 15.1053 20.4582C15.0829 20.5805 15.0418 20.6984 15.001 20.8154C15.1339 20.4343 14.9969 20.7797 14.948 20.8618C14.7426 21.2071 15.1745 20.6156 14.9063 20.9125C14.8498 20.9752 14.543 21.2164 14.8712 20.9726C14.7736 21.045 14.666 21.1024 14.5592 21.1594C14.909 20.973 14.5873 21.1399 14.4895 21.1687C14.3074 21.2066 14.3284 21.21 14.5523 21.1787C14.467 21.1877 14.3815 21.1922 14.2957 21.1922C14.1983 21.1947 13.8073 21.1207 14.223 21.1978C14.1012 21.1753 13.9837 21.134 13.8671 21.093C14.2469 21.2264 13.9026 21.0889 13.8209 21.0399C13.4767 20.8338 14.0662 21.2671 13.7703 20.9981C13.7078 20.9413 13.4674 20.6335 13.7104 20.9628C13.6382 20.8649 13.581 20.7569 13.5243 20.6497C13.7101 21.0008 13.5436 20.678 13.5149 20.5798C13.4771 20.3972 13.4738 20.4182 13.5049 20.6428C13.496 20.5572 13.4915 20.4714 13.4915 20.3853C13.489 20.2876 13.5627 19.8952 13.486 20.3124C13.5084 20.1901 13.5495 20.0722 13.5903 19.9552C13.4574 20.3363 13.5944 19.9909 13.6433 19.9088C13.8487 19.5635 13.4167 20.155 13.685 19.8581C13.7415 19.7954 14.0483 19.5542 13.7201 19.798C13.8176 19.7256 13.9252 19.6682 14.0321 19.6112C13.6823 19.7976 14.004 19.6307 14.1018 19.6019C14.2839 19.564 14.2629 19.5606 14.039 19.5919C14.1243 19.5829 14.2098 19.5784 14.2956 19.5784C14.393 19.5759 14.784 19.6499 14.3683 19.5728C14.4901 19.5953 14.6076 19.6366 14.7242 19.6776C14.3444 19.5442 14.6887 19.6817 14.7704 19.7307C15.1145 19.9368 14.5251 19.5034 14.821 19.7725C14.8835 19.8293 15.1239 20.1371 14.8809 19.8078C14.953 19.9057 15.0103 20.0137 15.067 20.1209C14.8812 19.7698 15.0476 20.0926 15.0763 20.1908C15.1141 20.3734 15.1174 20.3524 15.0863 20.1278C15.0953 20.2134 15.0998 20.2993 15.0998 20.3853C15.1229 21.2753 15.8228 22.019 16.7278 22.019C17.5977 22.019 18.379 21.2759 18.3558 20.3853C18.2971 18.1274 16.5456 16.3698 14.2958 16.3109C12.0466 16.252 10.2921 18.2163 10.2357 20.3853C10.177 22.6424 12.1345 24.403 14.2958 24.4596C16.545 24.5186 18.2994 22.5542 18.3558 20.3853C18.379 19.4946 17.5977 18.7515 16.7278 18.7515C15.8228 18.7515 15.1229 19.4952 15.0998 20.3853Z" fill="#2D995E"/>
<path d="M49.636 9.70827C49.636 11.7421 49.636 13.7758 49.636 15.8096C50.1786 15.2651 50.7214 14.7204 51.264 14.1759C48.9777 14.1759 46.6915 14.1759 44.4051 14.1759C43.5334 14.1759 42.6617 14.1759 41.79 14.1759C39.4864 14.1759 37.3666 15.0173 35.5815 16.4456C33.854 17.8277 32.6491 19.9708 32.2847 22.1479C32.1275 23.0872 32.1255 24.0035 32.1255 24.9474C32.1255 27.6903 32.1255 30.4333 32.1255 33.1763C32.1255 34.8717 32.1255 36.5672 32.1255 38.2626C32.6682 37.7181 33.2109 37.1734 33.7535 36.6289C31.451 36.6289 29.1485 36.6289 26.846 36.6289C25.8444 36.6289 24.3703 36.3846 23.5694 37.1079C23.1742 37.4648 22.779 37.8217 22.3838 38.1787C18.7543 41.4567 15.1249 44.7347 11.4954 48.0127C11.4669 48.0385 11.4384 48.0642 11.4098 48.09C12.3362 48.475 13.2627 48.8601 14.1891 49.2452C14.1891 45.5844 14.1891 41.9235 14.1891 38.2626C14.1891 37.372 13.4486 36.6289 12.5611 36.6289C11.4716 36.6289 10.3766 36.663 9.28781 36.6196C9.15952 36.6144 9.03161 36.6032 8.90378 36.592C8.47128 36.554 9.25935 36.6508 8.83261 36.5859C8.5845 36.5481 8.33955 36.4928 8.09618 36.4318C7.85579 36.3715 7.61987 36.2943 7.38618 36.2119C7.31622 36.187 6.92744 36.0292 7.31808 36.1949C7.16783 36.1311 7.02122 36.0594 6.87525 35.9866C6.65728 35.8778 6.44694 35.7542 6.23985 35.626C6.13659 35.5621 6.0363 35.4936 5.93602 35.4251C5.87555 35.3838 5.54482 35.1354 5.87582 35.3921C5.46119 35.0705 5.08627 34.6998 4.74197 34.3043C4.66243 34.2129 4.58698 34.118 4.51153 34.023C4.77155 34.3503 4.52139 34.0237 4.4786 33.9627C4.33887 33.7633 4.21281 33.5546 4.09168 33.3436C3.96991 33.1313 3.86283 32.9108 3.76087 32.6883C3.58634 32.3073 3.88851 33.0155 3.73724 32.6235C3.67779 32.4694 3.62672 32.3122 3.57695 32.1547C3.5015 31.9163 3.44298 31.6728 3.39014 31.4286C3.36344 31.3052 3.3426 31.1806 3.32176 31.056C3.25022 30.6288 3.36037 31.418 3.31562 30.9846C3.28809 30.7182 3.27888 30.4495 3.27888 30.1816C3.27888 29.6496 3.27888 29.1175 3.27888 28.5853C3.27888 23.1482 3.27888 17.7111 3.27888 12.274C3.27888 11.5137 3.27888 10.7534 3.27888 9.9931C3.27888 9.81115 3.27869 9.62948 3.28297 9.44762C3.28604 9.31841 3.29525 9.18939 3.30437 9.06056C3.30986 8.98391 3.36167 8.55026 3.30269 8.98671C3.33646 8.73661 3.38791 8.4893 3.44503 8.24368C3.5015 8.00104 3.57481 7.7627 3.6536 7.52651C3.69268 7.40925 3.73715 7.29395 3.78161 7.17866C3.62337 7.58906 3.82766 7.08427 3.86469 7.00669C4.07457 6.56642 4.33403 6.15126 4.61945 5.75683C4.37533 6.09413 4.61563 5.7642 4.66373 5.70557C4.74048 5.61184 4.82142 5.52166 4.90226 5.43148C5.09093 5.22114 5.29503 5.02528 5.50454 4.83614C5.59441 4.75491 5.68781 4.6779 5.78121 4.60078C6.09984 4.33789 5.50287 4.80542 5.83694 4.56204C6.03333 4.41892 6.2392 4.28934 6.44759 4.16471C6.65709 4.03942 6.87488 3.9287 7.09471 3.82311C7.16299 3.79035 7.54721 3.63369 7.15583 3.79268C7.30822 3.73078 7.46376 3.6772 7.61959 3.62482C7.85551 3.54556 8.09665 3.48311 8.33871 3.42644C8.46096 3.39778 8.58459 3.37491 8.70795 3.35213C8.78508 3.33784 9.20976 3.28622 8.77661 3.33822C9.07887 3.3019 9.38447 3.28818 9.68868 3.28818C9.79018 3.28818 9.89177 3.28818 9.99317 3.28818C14.2517 3.28818 18.5103 3.28818 22.7689 3.28818C28.3765 3.28818 33.9841 3.28818 39.5917 3.28818C40.7934 3.28818 41.9953 3.28818 43.1972 3.28818C43.2541 3.28818 43.3111 3.28874 43.3682 3.2892C43.6255 3.29126 43.8821 3.31161 44.1378 3.33822C43.7055 3.29331 44.1279 3.33887 44.2065 3.35213C44.3713 3.37995 44.5346 3.41673 44.6974 3.45491C44.9392 3.51158 45.1767 3.58515 45.412 3.66422C45.5289 3.70343 45.6438 3.74805 45.7587 3.79268C45.3663 3.64023 45.7499 3.79091 45.8198 3.82311C46.2987 4.04409 46.7494 4.32295 47.1755 4.63346C46.8394 4.38849 47.1682 4.62963 47.2267 4.6778C47.32 4.75482 47.41 4.83604 47.4997 4.91717C47.6795 5.07952 47.8479 5.25372 48.0122 5.43138C48.0945 5.52035 48.1727 5.61287 48.2508 5.70548C48.299 5.76252 48.5449 6.09151 48.2951 5.75673C48.4648 5.98415 48.6173 6.22389 48.7622 6.46783C48.8871 6.67808 48.9973 6.89662 49.1026 7.11723C49.1353 7.18575 49.2913 7.57132 49.1329 7.17857C49.1791 7.29321 49.2201 7.40981 49.2609 7.52641C49.3433 7.76149 49.4093 8.00198 49.4694 8.24358C49.4998 8.3656 49.5245 8.48884 49.549 8.61207C49.5663 8.69824 49.6397 9.25801 49.5858 8.80522C49.6219 9.1049 49.6337 9.40682 49.636 9.70827C49.6431 10.5988 50.3712 11.342 51.264 11.342C52.1461 11.342 52.8991 10.5989 52.8921 9.70827C52.8729 7.28518 51.9787 5.02929 50.3959 3.21116C48.8375 1.42122 46.5904 0.365064 44.2645 0.0859258C43.0821 -0.0559774 41.8533 0.0206685 40.6657 0.0206685C35.2808 0.0206685 29.8958 0.0206685 24.511 0.0206685C19.8342 0.0206685 15.1576 0.0206685 10.4809 0.0206685C10.2129 0.0206685 9.94479 0.0206685 9.67677 0.0206685C7.26989 0.0206685 5.00385 0.946307 3.2025 2.52563C1.41873 4.08946 0.366277 6.34451 0.0881152 8.67854C0.0110859 9.32494 0.0230869 9.97079 0.0230869 10.6199C0.0230869 15.9509 0.0230869 21.2819 0.0230869 26.613C0.0230869 28.4125 -0.095062 30.2677 0.203194 32.0493C0.964277 36.5959 5.22991 39.8964 9.73585 39.8964C10.6777 39.8964 11.6194 39.8964 12.5612 39.8964C12.0185 39.3518 11.4758 38.8072 10.9332 38.2626C10.9332 41.9235 10.9332 45.5844 10.9332 49.2452C10.9332 50.7264 12.6797 51.333 13.7124 50.4004C17.1666 47.2807 20.6208 44.161 24.075 41.0412C24.6741 40.5001 25.2733 39.959 25.8725 39.4179C25.4887 39.5774 25.105 39.7369 24.7212 39.8964C27.732 39.8964 30.7428 39.8964 33.7536 39.8964C34.6411 39.8964 35.3817 39.1533 35.3817 38.2626C35.3817 33.7117 35.3817 29.1607 35.3817 24.6097C35.3817 24.3738 35.3817 24.1379 35.3817 23.9019C35.3817 23.6728 35.391 23.4443 35.4073 23.2157C35.4127 23.139 35.4646 22.7054 35.4056 23.1418C35.4225 23.0164 35.4454 22.8918 35.4683 22.7673C35.521 22.4799 35.5961 22.1972 35.6797 21.9176C35.7153 21.7989 35.7563 21.6818 35.7973 21.5649C35.822 21.4947 35.9794 21.1046 35.8142 21.4966C35.9093 21.2708 36.02 21.0517 36.1353 20.8357C36.2501 20.6207 36.3794 20.4138 36.5131 20.2103C36.5798 20.1087 36.651 20.0103 36.7222 19.9119C36.4679 20.2635 36.7901 19.8327 36.8447 19.7681C37.1574 19.3978 37.5108 19.0638 37.884 18.7559C38.2026 18.493 37.6057 18.9605 37.9397 18.7172C38.0379 18.6456 38.1391 18.5787 38.2403 18.5117C38.4774 18.3548 38.7258 18.2163 38.978 18.0857C39.0865 18.0294 39.1977 17.9781 39.3087 17.9269C39.6883 17.7518 38.9826 18.055 39.3733 17.9033C39.604 17.8137 39.8407 17.7403 40.0787 17.6726C40.3195 17.6041 40.5649 17.5527 40.8109 17.5072C40.8881 17.493 41.3127 17.4413 40.8796 17.4933C41.0493 17.473 41.22 17.4622 41.3905 17.4525C41.6963 17.4355 42.0051 17.4432 42.3112 17.4432C43.5754 17.4432 44.8396 17.4432 46.1038 17.4432C47.8239 17.4432 49.544 17.4432 51.2642 17.4432C52.1517 17.4432 52.8922 16.7001 52.8922 15.8095C52.8922 13.7757 52.8922 11.7419 52.8922 9.70808C52.8922 8.81745 52.1517 8.07433 51.2642 8.07433C50.3767 8.07433 49.636 8.81764 49.636 9.70827Z" fill="#2D995E"/>
<path d="M81.7377 23.8635C81.7377 28.3511 81.7377 32.8387 81.7377 37.3264C81.7377 39.5132 81.7377 41.7 81.7377 43.8867C81.7377 44.0411 81.7377 44.1957 81.7377 44.3503C81.7377 44.6569 81.7193 44.9622 81.6879 45.2671C81.7326 44.8334 81.6871 45.2572 81.674 45.336C81.6532 45.4603 81.6266 45.5835 81.6 45.7066C81.5385 45.991 81.4549 46.2701 81.363 46.5459C81.3239 46.6632 81.2795 46.7784 81.235 46.8938C81.3869 46.5 81.2368 46.885 81.2047 46.955C81.1028 47.1774 80.9859 47.3925 80.8643 47.6044C80.7431 47.8156 80.6079 48.0182 80.4683 48.2172C80.2308 48.556 80.6869 47.9495 80.4297 48.2731C80.3293 48.3995 80.2223 48.5206 80.1144 48.6409C79.9527 48.8211 79.779 48.9901 79.6019 49.1551C79.5133 49.2376 79.421 49.3161 79.3288 49.3944C79.2719 49.4429 78.944 49.6896 79.2776 49.4389C78.8557 49.7561 78.3968 50.0212 77.9219 50.2492C77.8479 50.284 77.7735 50.3176 77.6986 50.3501C77.8993 50.2654 77.9151 50.2568 77.7461 50.3242C77.5541 50.3988 77.3575 50.4614 77.1604 50.5208C76.8001 50.6294 76.4305 50.7036 76.0592 50.7601C76.5096 50.6916 75.9446 50.7614 75.8576 50.7675C75.6843 50.7801 75.51 50.7841 75.3363 50.7841C75.2256 50.7841 75.1148 50.7841 75.0041 50.7841C74.1551 50.7841 73.306 50.7841 72.4569 50.7841C71.5694 50.7841 70.8289 51.5272 70.8289 52.4178C70.8289 56.0786 70.8289 59.7396 70.8289 63.4004C71.7553 63.0153 72.6817 62.6302 73.6081 62.2452C70.1539 59.1255 66.6997 56.0057 63.2455 52.886C62.6793 52.3746 62.1131 51.8634 61.547 51.352C61.18 51.0205 60.7759 50.7841 60.2578 50.7841C60.0619 50.7841 59.8659 50.7841 59.67 50.7841C57.3014 50.7841 54.9329 50.7841 52.5643 50.7841C49.7386 50.7841 46.9128 50.7841 44.087 50.7841C43.3686 50.7841 42.6502 50.7841 41.9318 50.7841C41.884 50.7841 41.8361 50.7841 41.7883 50.7841C41.6983 50.7841 41.6086 50.7821 41.5187 50.78C41.3899 50.7769 41.2614 50.7676 41.133 50.7584C41.048 50.7517 40.9633 50.7435 40.8786 50.734C41.1012 50.7666 41.1197 50.7689 40.9344 50.741C40.4411 50.6659 39.958 50.5329 39.488 50.3669C39.4181 50.3421 39.0293 50.1842 39.4199 50.35C39.3073 50.3022 39.1968 50.2491 39.0865 50.1962C38.8301 50.0732 38.5835 49.9307 38.3418 49.7811C38.2385 49.7172 38.1382 49.6488 38.038 49.5802C37.9775 49.5389 37.6468 49.2904 37.9779 49.5472C37.7865 49.3987 37.6055 49.2376 37.4282 49.0725C37.251 48.9076 37.0851 48.7309 36.9235 48.5507C36.8426 48.4605 36.7658 48.3668 36.689 48.273C36.5776 48.1323 36.5883 48.1465 36.7216 48.3155C36.6737 48.2503 36.6267 48.1843 36.5807 48.1177C36.3004 47.7178 36.0663 47.2872 35.863 46.8435C35.6885 46.4625 35.9906 47.1707 35.8394 46.7786C35.7948 46.6632 35.7556 46.5456 35.7166 46.4283C35.6244 46.1518 35.5538 45.8685 35.4923 45.5837C35.4656 45.4603 35.4447 45.3357 35.4239 45.2112C35.3523 44.784 35.4625 45.5731 35.4177 45.1398C35.3911 44.8821 35.383 44.6229 35.381 44.3641C35.3808 44.3331 35.381 44.3021 35.381 44.2712C35.381 44.0512 35.381 43.8312 35.381 43.6112C35.381 41.2766 35.381 38.9419 35.381 36.6074C35.381 33.6566 35.381 30.7059 35.381 27.7551C35.381 26.7618 35.381 25.7685 35.381 24.7752C35.381 24.5239 35.381 24.2724 35.381 24.021C35.381 23.9731 35.381 23.9253 35.381 23.8775C35.381 23.8292 35.3816 23.7812 35.382 23.7329C35.383 23.6033 35.3902 23.4737 35.3974 23.3443C35.4022 23.2581 35.4663 22.6876 35.4049 23.142C35.4721 22.6448 35.5973 22.157 35.7557 21.6818C35.7948 21.5646 35.8393 21.4492 35.8837 21.3339C35.7319 21.7277 35.882 21.3427 35.9141 21.2726C36.0329 21.0132 36.1712 20.7634 36.3167 20.5184C36.4409 20.3092 36.5791 20.1089 36.7216 19.912C36.4775 20.2494 36.7178 19.9194 36.7659 19.8608C36.8426 19.767 36.9235 19.6768 37.0044 19.5867C37.1661 19.4065 37.3398 19.2374 37.5168 19.0724C37.6054 18.9899 37.6976 18.9115 37.7899 18.8331C37.8518 18.7812 37.9145 18.7303 37.9779 18.6803C37.808 18.812 37.795 18.8243 37.9391 18.7173C38.3329 18.4302 38.7582 18.1889 39.1969 17.9783C39.2651 17.9455 39.6493 17.7889 39.258 17.9479C39.3723 17.9015 39.4885 17.8604 39.6047 17.8194C39.8782 17.7228 40.1589 17.6477 40.441 17.5816C40.5633 17.553 40.6868 17.5301 40.8103 17.5073C40.8874 17.493 41.3121 17.4414 40.8789 17.4934C41.1344 17.4628 41.3916 17.4505 41.6486 17.4444C41.708 17.4429 41.7677 17.4434 41.8273 17.4434C43.0467 17.4434 44.2663 17.4434 45.4857 17.4434C51.1033 17.4434 56.721 17.4434 62.3386 17.4434C66.5734 17.4434 70.8083 17.4434 75.0432 17.4434C75.1856 17.4434 75.328 17.4433 75.4704 17.4444C75.6425 17.4458 75.8141 17.4567 75.9857 17.469C76.0706 17.4758 76.1553 17.484 76.24 17.4934C76.0175 17.4608 75.9989 17.4585 76.1842 17.4864C76.5143 17.5367 76.8394 17.6154 77.1604 17.7067C77.319 17.7518 77.4751 17.8056 77.6306 17.8605C77.7078 17.8884 77.7845 17.9175 77.8609 17.9479C77.6614 17.8608 77.6448 17.8538 77.8108 17.9269C78.1083 18.0588 78.3943 18.2153 78.6735 18.3823C78.7778 18.4446 78.8792 18.5116 78.9805 18.5787C79.0489 18.624 79.4856 18.9475 79.1409 18.6802C79.396 18.8781 79.6344 19.0967 79.8639 19.3237C80.0936 19.5508 80.3042 19.7964 80.5052 20.0492C80.2344 19.7083 80.5596 20.1413 80.6063 20.2102C80.6975 20.3444 80.7815 20.4834 80.8643 20.6229C81.031 20.9036 81.1739 21.1977 81.3052 21.4964C81.1275 21.092 81.335 21.6017 81.363 21.6815C81.4179 21.8379 81.4642 21.9971 81.5092 22.1566C81.6004 22.4796 81.6637 22.81 81.7138 23.1417C81.6455 22.6897 81.7151 23.2566 81.7213 23.344C81.7336 23.5171 81.7364 23.6905 81.7377 23.8635C81.7448 24.7541 82.473 25.4973 83.3658 25.4973C84.2479 25.4973 85.0009 24.7542 84.9938 23.8635C84.9746 21.4405 84.0804 19.1846 82.4976 17.3665C80.9393 15.5765 78.6921 14.5203 76.3663 14.2412C75.1839 14.0993 73.9551 14.1759 72.7675 14.1759C67.3825 14.1759 61.9976 14.1759 56.6127 14.1759C51.936 14.1759 47.2593 14.1759 42.5826 14.1759C42.3145 14.1759 42.0464 14.1759 41.7784 14.1759C39.3715 14.1759 37.1055 15.1016 35.3041 16.6809C33.5203 18.2446 32.4678 20.4998 32.1897 22.8338C32.1126 23.4802 32.1246 24.1261 32.1246 24.7752C32.1246 30.1062 32.1246 35.4372 32.1246 40.7681C32.1246 42.5677 32.0065 44.4229 32.3048 46.2046C33.06 50.7161 37.3019 54.0516 41.7882 54.0516C46.4843 54.0516 51.1804 54.0516 55.8765 54.0516C57.35 54.0516 58.8234 54.0516 60.2969 54.0516C59.9131 53.892 59.5294 53.7326 59.1457 53.573C62.5999 56.6927 66.0541 59.8125 69.5083 62.9322C70.1074 63.4734 70.7066 64.0145 71.3058 64.5556C72.3384 65.4882 74.085 64.8816 74.085 63.4004C74.085 59.7396 74.085 56.0786 74.085 52.4178C73.5423 52.9624 72.9996 53.507 72.4569 54.0516C73.546 54.0516 74.6406 54.0856 75.729 54.0422C78.1099 53.9473 80.3634 52.9463 82.0802 51.2992C83.8069 49.6426 84.762 47.3752 84.9682 45.0118C85.0169 44.4541 84.9938 43.8837 84.9938 43.3243C84.9938 37.964 84.9938 32.6035 84.9938 27.2431C84.9938 26.1165 84.9938 24.99 84.9938 23.8634C84.9938 22.9727 84.2533 22.2296 83.3658 22.2296C82.4783 22.2296 81.7377 22.973 81.7377 23.8635Z" fill="#2D995E"/>
<path d="M54.5005 34.5408C54.5592 36.7985 56.3108 38.5563 58.5606 38.6152C60.8099 38.6741 62.5642 36.7097 62.6207 34.5408C62.6794 32.2836 60.722 30.523 58.5606 30.4664C56.3113 30.4075 54.557 32.3718 54.5005 34.5408C54.4773 35.4314 55.2585 36.1745 56.1285 36.1745C57.0335 36.1745 57.7334 35.4308 57.7566 34.5408C57.759 34.4463 57.8281 34.0484 57.751 34.4679C57.7734 34.3456 57.8145 34.2277 57.8553 34.1107C57.7224 34.4918 57.8595 34.1464 57.9082 34.0644C58.1137 33.719 57.6817 34.3106 57.9499 34.0135C58.0065 33.9508 58.3132 33.7096 57.9851 33.9535C58.0826 33.881 58.1902 33.8236 58.2971 33.7667C57.9473 33.9531 58.2689 33.7862 58.3668 33.7573C58.5487 33.7194 58.5278 33.7161 58.304 33.7473C58.3893 33.7384 58.4748 33.7339 58.5605 33.7339C58.6579 33.7314 59.0489 33.8053 58.6332 33.7283C58.7551 33.7508 58.8726 33.792 58.9891 33.8329C58.6094 33.6996 58.9535 33.8371 59.0353 33.8861C59.3794 34.0923 58.79 33.6587 59.0859 33.9279C59.1483 33.9846 59.3887 34.2924 59.1457 33.9632C59.2179 34.0611 59.2751 34.169 59.3319 34.2763C59.1461 33.9253 59.3124 34.248 59.3412 34.3462C59.3789 34.5288 59.3823 34.5078 59.3511 34.2832C59.36 34.3688 59.3645 34.4546 59.3645 34.5407C59.367 34.6384 59.2933 35.0309 59.3701 34.6136C59.3477 34.7359 59.3066 34.8538 59.2658 34.9708C59.3987 34.5897 59.2616 34.935 59.2129 35.0171C59.0075 35.3624 59.4394 34.7709 59.1712 35.068C59.1147 35.1306 58.8079 35.3718 59.136 35.128C59.0385 35.2004 58.931 35.2579 58.8241 35.3148C59.1739 35.1284 58.8523 35.2953 58.7544 35.3241C58.5725 35.362 58.5934 35.3654 58.8172 35.3341C58.7319 35.3431 58.6464 35.3476 58.5606 35.3476C58.4632 35.3501 58.0722 35.2762 58.488 35.3532C58.3661 35.3307 58.2486 35.2894 58.132 35.2485C58.5118 35.3818 58.1677 35.2443 58.0859 35.1954C57.7418 34.9892 58.3312 35.4227 58.0352 35.1536C57.9728 35.0968 57.7324 34.789 57.9754 35.1183C57.9032 35.0204 57.846 34.9124 57.7892 34.8052C57.975 35.1562 57.8087 34.8334 57.7799 34.7352C57.7421 34.5526 57.7388 34.5736 57.77 34.7983C57.761 34.7126 57.7566 34.6268 57.7566 34.5408C57.7334 33.6507 57.0335 32.907 56.1285 32.907C55.2586 32.907 54.4773 33.6501 54.5005 34.5408Z" fill="#2D995E"/>
<path d="M66.6607 34.5408C66.7194 36.7984 68.4708 38.5563 70.7206 38.6152C72.9699 38.6741 74.7243 36.7097 74.7807 34.5408C74.8394 32.2836 72.882 30.523 70.7206 30.4664C68.4714 30.4075 66.7171 32.3719 66.6607 34.5408C66.6375 35.4314 67.4187 36.1745 68.2887 36.1745C69.1937 36.1745 69.8936 35.4308 69.9167 34.5408C69.9191 34.4463 69.9883 34.0484 69.9111 34.4679C69.9336 34.3456 69.9747 34.2277 70.0154 34.1107C69.8826 34.4918 70.0196 34.1464 70.0684 34.0644C70.2738 33.719 69.8418 34.3106 70.11 34.0135C70.1665 33.9508 70.4733 33.7096 70.1452 33.9535C70.2427 33.881 70.3503 33.8236 70.4571 33.7667C70.1073 33.9531 70.4289 33.7862 70.5268 33.7573C70.7088 33.7194 70.6878 33.7161 70.4639 33.7473C70.5492 33.7384 70.6347 33.7339 70.7205 33.7339C70.8179 33.7314 71.2089 33.8053 70.7932 33.7283C70.915 33.7508 71.0325 33.792 71.1491 33.8329C70.7694 33.6996 71.1135 33.8371 71.1952 33.8861C71.5394 34.0923 70.9499 33.6587 71.246 33.9279C71.3084 33.9846 71.5488 34.2924 71.3058 33.9632C71.378 34.0611 71.4352 34.169 71.4919 34.2763C71.3061 33.9253 71.4725 34.248 71.5012 34.3462C71.539 34.5288 71.5423 34.5078 71.5112 34.2832C71.5201 34.3688 71.5246 34.4546 71.5246 34.5407C71.5271 34.6384 71.4534 35.0308 71.5302 34.6136C71.5077 34.7359 71.4666 34.8538 71.4259 34.9708C71.5587 34.5897 71.4217 34.935 71.3729 35.0171C71.1674 35.3624 71.5995 34.7709 71.3313 35.068C71.2747 35.1306 70.968 35.3718 71.2961 35.128C71.1985 35.2004 71.091 35.2579 70.9841 35.3148C71.3339 35.1284 71.0123 35.2953 70.9144 35.3241C70.7324 35.362 70.7533 35.3654 70.9772 35.3341C70.8919 35.3431 70.8064 35.3476 70.7206 35.3476C70.6232 35.3501 70.2322 35.2762 70.648 35.3532C70.5262 35.3307 70.4087 35.2894 70.2921 35.2485C70.6719 35.3819 70.3277 35.2443 70.246 35.1954C69.9018 34.9892 70.4914 35.4227 70.1954 35.1536C70.1329 35.0968 69.8925 34.789 70.1355 35.1183C70.0633 35.0204 70.0061 34.9124 69.9494 34.8052C70.1352 35.1562 69.9688 34.8334 69.9401 34.7352C69.9023 34.5526 69.899 34.5736 69.9301 34.7983C69.9212 34.7126 69.9167 34.6268 69.9167 34.5408C69.8936 33.6507 69.1937 32.907 68.2887 32.907C67.4188 32.907 66.6375 33.6501 66.6607 34.5408Z" fill="#2D995E"/>
<path d="M42.3403 34.5408C42.399 36.7985 44.1506 38.5563 46.4005 38.6152C48.6498 38.6741 50.404 36.7097 50.4605 34.5408C50.5192 32.2836 48.5619 30.523 46.4005 30.4664C44.1512 30.4075 42.3968 32.3718 42.3403 34.5408C42.3172 35.4314 43.0984 36.1745 43.9684 36.1745C44.8734 36.1745 45.5732 35.4308 45.5964 34.5408C45.5988 34.4463 45.668 34.0484 45.5908 34.4679C45.6133 34.3456 45.6544 34.2277 45.6951 34.1107C45.5623 34.4918 45.6993 34.1464 45.7481 34.0644C45.9535 33.719 45.5215 34.3106 45.7897 34.0135C45.8463 33.9508 46.153 33.7096 45.8249 33.9535C45.9225 33.881 46.03 33.8236 46.1369 33.7667C45.7871 33.9531 46.1087 33.7862 46.2066 33.7573C46.3886 33.7194 46.3676 33.7161 46.1438 33.7473C46.2291 33.7384 46.3146 33.7339 46.4004 33.7339C46.4978 33.7314 46.8888 33.8053 46.473 33.7283C46.5949 33.7508 46.7124 33.792 46.829 33.8329C46.4492 33.6996 46.7933 33.8371 46.8751 33.8861C47.2192 34.0923 46.6297 33.6587 46.9257 33.9279C46.9881 33.9846 47.2285 34.2924 46.9855 33.9632C47.0577 34.0611 47.115 34.169 47.1717 34.2763C46.9859 33.9253 47.1523 34.248 47.181 34.3462C47.2188 34.5288 47.2221 34.5078 47.191 34.2832C47.1999 34.3688 47.2044 34.4546 47.2044 34.5407C47.2069 34.6384 47.1332 35.0309 47.2099 34.6136C47.1875 34.7359 47.1464 34.8538 47.1056 34.9708C47.2385 34.5897 47.1015 34.935 47.0527 35.0171C46.8473 35.3624 47.2792 34.7709 47.0111 35.068C46.9546 35.1306 46.6478 35.3718 46.9759 35.128C46.8784 35.2004 46.7708 35.2579 46.6639 35.3148C47.0137 35.1284 46.6921 35.2953 46.5943 35.3241C46.4123 35.362 46.4332 35.3654 46.6571 35.3341C46.5717 35.3431 46.4862 35.3476 46.4005 35.3476C46.3031 35.3501 45.9121 35.2762 46.3278 35.3532C46.2059 35.3307 46.0885 35.2894 45.9719 35.2485C46.3516 35.3818 46.0075 35.2443 45.9257 35.1954C45.5816 34.9892 46.1711 35.4227 45.8751 35.1536C45.8126 35.0968 45.5722 34.789 45.8152 35.1183C45.743 35.0204 45.6858 34.9124 45.6291 34.8052C45.8148 35.1562 45.6485 34.8334 45.6198 34.7352C45.582 34.5526 45.5786 34.5736 45.6098 34.7983C45.6009 34.7126 45.5964 34.6268 45.5964 34.5408C45.5732 33.6507 44.8734 32.907 43.9684 32.907C43.0985 32.907 42.3172 33.6501 42.3403 34.5408Z" fill="#2D995E"/>
</svg>
