<svg width="40" height="31" viewBox="0 0 40 31" fill="none" xmlns="http://www.w3.org/2000/svg">
<path d="M12.83 9.593C12.8289 9.63746 12.7964 9.8247 12.8327 9.62731C12.8221 9.68486 12.8028 9.74035 12.7836 9.79539C12.8461 9.61606 12.7816 9.77861 12.7586 9.81723C12.662 9.97974 12.8652 9.70138 12.739 9.84113C12.7124 9.87061 12.568 9.98413 12.7225 9.86938C12.6766 9.90347 12.626 9.93049 12.5757 9.95729C12.7403 9.86955 12.589 9.9481 12.5429 9.96168C12.4572 9.97952 12.4671 9.9811 12.5725 9.96638C12.5323 9.9706 12.4921 9.97271 12.4517 9.97271C12.4059 9.97389 12.2219 9.9391 12.4175 9.97534C12.3602 9.96475 12.3049 9.94534 12.25 9.92605C12.4287 9.98883 12.2668 9.92412 12.2283 9.90105C12.0663 9.80405 12.3437 10.008 12.2045 9.88137C12.1751 9.85466 12.062 9.70982 12.1763 9.86476C12.1423 9.81872 12.1154 9.76789 12.0887 9.71746C12.1761 9.88264 12.0979 9.73077 12.0843 9.68455C12.0666 9.59862 12.065 9.60851 12.0796 9.71421C12.0754 9.67392 12.0733 9.63355 12.0733 9.59304C12.0722 9.54704 12.1068 9.3624 12.0707 9.55873C12.0813 9.50118 12.1006 9.44569 12.1198 9.39065C12.0573 9.56998 12.1218 9.40743 12.1447 9.36881C12.2414 9.20631 12.0382 9.48466 12.1644 9.34491C12.191 9.31543 12.3354 9.20191 12.1809 9.31666C12.2268 9.28257 12.2774 9.25555 12.3277 9.22876C12.1631 9.31649 12.3145 9.23794 12.3605 9.22436C12.4462 9.20653 12.4363 9.20494 12.331 9.21966C12.3711 9.21544 12.4114 9.21334 12.4517 9.21334C12.4976 9.21215 12.6816 9.24694 12.4859 9.2107C12.5433 9.22129 12.5985 9.2407 12.6534 9.25999C12.4747 9.19721 12.6367 9.26192 12.6752 9.28499C12.8371 9.38199 12.5597 9.17801 12.699 9.30467C12.7284 9.33138 12.8415 9.47623 12.7271 9.32128C12.7611 9.36732 12.788 9.41815 12.8147 9.46858C12.7273 9.3034 12.8056 9.45527 12.8191 9.50149C12.8369 9.58742 12.8385 9.57753 12.8238 9.47183C12.8279 9.51212 12.83 9.55254 12.83 9.593C12.841 10.0118 13.1703 10.3618 13.5962 10.3618C14.0055 10.3618 14.3732 10.0121 14.3623 9.593C14.3347 8.53054 13.5105 7.70343 12.4517 7.6757C11.3933 7.64798 10.5677 8.57236 10.5411 9.593C10.5135 10.6552 11.4347 11.4836 12.4517 11.5103C13.5101 11.538 14.3357 10.6136 14.3623 9.593C14.3732 9.17388 14.0055 8.82418 13.5962 8.82418C13.1703 8.82418 12.841 9.17415 12.83 9.593Z" fill="#65B78F"/>
<path d="M7.105 9.593C7.10386 9.63746 7.07133 9.8247 7.10762 9.62731C7.09707 9.68486 7.07772 9.74035 7.0585 9.79539C7.12106 9.61606 7.05658 9.77861 7.03359 9.81723C6.93693 9.97974 7.14015 9.70138 7.01398 9.84113C6.98736 9.87061 6.84298 9.98413 6.99743 9.86938C6.95151 9.90347 6.9009 9.93049 6.8506 9.95729C7.01521 9.86955 6.86386 9.9481 6.81781 9.96168C6.73213 9.97952 6.74203 9.9811 6.84736 9.96638C6.80721 9.9706 6.76698 9.97271 6.72662 9.97271C6.68078 9.97389 6.49678 9.9391 6.69243 9.97534C6.63508 9.96475 6.57978 9.94534 6.52493 9.92605C6.70363 9.98883 6.54165 9.92412 6.50317 9.90105C6.34124 9.80405 6.61862 10.008 6.47936 9.88137C6.44998 9.85466 6.33686 9.70982 6.45121 9.86476C6.41719 9.81872 6.39031 9.76789 6.36361 9.71746C6.45103 9.88264 6.37271 9.73077 6.35918 9.68455C6.34141 9.59862 6.33983 9.60851 6.3545 9.71421C6.3503 9.67392 6.3482 9.63355 6.3482 9.59304C6.34701 9.54704 6.38169 9.3624 6.34557 9.55873C6.35612 9.50118 6.37547 9.44569 6.39469 9.39065C6.33213 9.56998 6.39662 9.40743 6.4196 9.36881C6.51626 9.20631 6.313 9.48466 6.43921 9.34491C6.46583 9.31543 6.61021 9.20191 6.45576 9.31666C6.50164 9.28257 6.55229 9.25555 6.60259 9.22876C6.43799 9.31649 6.58933 9.23794 6.63538 9.22436C6.72106 9.20653 6.71116 9.20494 6.60583 9.21966C6.64598 9.21544 6.68621 9.21334 6.72657 9.21334C6.77241 9.21215 6.95641 9.24694 6.76077 9.2107C6.81811 9.22129 6.87341 9.2407 6.92826 9.25999C6.74956 9.19721 6.91154 9.26192 6.95002 9.28499C7.11196 9.38199 6.83458 9.17801 6.97384 9.30467C7.00321 9.33138 7.11633 9.47623 7.00198 9.32128C7.03596 9.36732 7.06288 9.41815 7.08959 9.46858C7.00216 9.3034 7.08044 9.45527 7.09396 9.50149C7.11174 9.58742 7.11331 9.57753 7.09865 9.47183C7.10289 9.51212 7.105 9.55254 7.105 9.593C7.1159 10.0118 7.44524 10.3618 7.87112 10.3618C8.28049 10.3618 8.64814 10.0121 8.63724 9.593C8.60962 8.53054 7.7854 7.70343 6.72666 7.6757C5.66823 7.64798 4.84261 8.57236 4.81604 9.593C4.78841 10.6552 5.7096 11.4836 6.72666 11.5103C7.78509 11.538 8.61071 10.6136 8.63724 9.593C8.64814 9.17388 8.28049 8.82418 7.87112 8.82418C7.44524 8.82418 7.1159 9.17415 7.105 9.593Z" fill="#65B78F"/>
<path d="M23.3578 4.56854C23.3578 5.52561 23.3578 6.48267 23.3578 7.43974C23.6132 7.18348 23.8686 6.92718 24.1239 6.67092C23.048 6.67092 21.9722 6.67092 20.8962 6.67092C20.486 6.67092 20.0758 6.67092 19.6656 6.67092C18.5816 6.67092 17.584 7.06688 16.744 7.739C15.9311 8.38942 15.3641 9.39789 15.1926 10.4224C15.1186 10.8644 15.1177 11.2956 15.1177 11.7398C15.1177 13.0306 15.1177 14.3214 15.1177 15.6122C15.1177 16.41 15.1177 17.2079 15.1177 18.0057C15.3731 17.7495 15.6285 17.4932 15.8838 17.2369C14.8003 17.2369 13.7168 17.2369 12.6333 17.2369C12.1619 17.2369 11.4682 17.1219 11.0913 17.4623C10.9054 17.6303 10.7194 17.7982 10.5334 17.9662C8.82545 19.5088 7.11752 21.0514 5.40954 22.5939C5.3961 22.6061 5.38271 22.6182 5.36927 22.6303C5.80521 22.8115 6.2412 22.9927 6.67715 23.1739C6.67715 21.4512 6.67715 19.7284 6.67715 18.0057C6.67715 17.5866 6.32867 17.2369 5.91103 17.2369C5.39834 17.2369 4.88306 17.2529 4.37068 17.2325C4.31031 17.2301 4.25011 17.2248 4.18996 17.2196C3.98644 17.2017 4.35728 17.2472 4.15647 17.2167C4.03971 17.1989 3.92445 17.1729 3.80992 17.1442C3.6968 17.1158 3.58577 17.0795 3.4758 17.0407C3.44288 17.029 3.25993 16.9547 3.44376 17.0327C3.37305 17.0027 3.30406 16.9689 3.23537 16.9347C3.1328 16.8835 3.03381 16.8253 2.93636 16.765C2.88777 16.7349 2.84058 16.7026 2.79338 16.6704C2.76493 16.651 2.60929 16.5341 2.76506 16.6549C2.56994 16.5035 2.39351 16.3291 2.23149 16.143C2.19406 16.1 2.15855 16.0553 2.12305 16.0106C2.24541 16.1647 2.12769 16.0109 2.10755 15.9822C2.04179 15.8884 1.98247 15.7902 1.92547 15.6909C1.86817 15.591 1.81778 15.4872 1.7698 15.3825C1.68767 15.2032 1.82986 15.5365 1.75868 15.352C1.7307 15.2795 1.70667 15.2056 1.68325 15.1315C1.64774 15.0192 1.62021 14.9047 1.59534 14.7897C1.58278 14.7317 1.57297 14.673 1.56316 14.6144C1.5295 14.4134 1.58133 14.7847 1.56027 14.5808C1.54732 14.4554 1.54298 14.329 1.54298 14.2029C1.54298 13.9526 1.54298 13.7022 1.54298 13.4517C1.54298 10.8931 1.54298 8.33455 1.54298 5.77593C1.54298 5.41815 1.54298 5.06036 1.54298 4.70258C1.54298 4.61695 1.54289 4.53146 1.54491 4.44588C1.54635 4.38508 1.55069 4.32436 1.55498 4.26374C1.55756 4.22767 1.58194 4.0236 1.55419 4.22899C1.57008 4.11129 1.59429 3.99492 1.62117 3.87933C1.64774 3.76515 1.68224 3.65299 1.71932 3.54184C1.73771 3.48666 1.75863 3.43241 1.77956 3.37815C1.70509 3.57128 1.80123 3.33373 1.81865 3.29723C1.91742 3.09004 2.03952 2.89467 2.17383 2.70906C2.05895 2.86779 2.17203 2.71253 2.19467 2.68494C2.23079 2.64083 2.26887 2.59839 2.30692 2.55596C2.3957 2.45698 2.49175 2.36481 2.59034 2.2758C2.63263 2.23758 2.67658 2.20133 2.72054 2.16505C2.87048 2.04133 2.58955 2.26135 2.74676 2.14681C2.83918 2.07947 2.93606 2.01849 3.03412 1.95984C3.13271 1.90088 3.2352 1.84878 3.33864 1.79909C3.37078 1.78367 3.55158 1.70995 3.36741 1.78477C3.43912 1.75564 3.51231 1.73042 3.58564 1.70578C3.69667 1.66848 3.81014 1.63909 3.92405 1.61242C3.98158 1.59893 4.03976 1.58817 4.09781 1.57745C4.1341 1.57073 4.33395 1.54644 4.13012 1.57091C4.27235 1.55382 4.41617 1.54736 4.55932 1.54736C4.60708 1.54736 4.65489 1.54736 4.70261 1.54736C6.70661 1.54736 8.71062 1.54736 10.7146 1.54736C13.3535 1.54736 15.9923 1.54736 18.6311 1.54736C19.1967 1.54736 19.7622 1.54736 20.3278 1.54736C20.3546 1.54736 20.3814 1.54762 20.4083 1.54784C20.5294 1.54881 20.6501 1.55838 20.7705 1.57091C20.567 1.54977 20.7658 1.57121 20.8028 1.57745C20.8803 1.59054 20.9572 1.60785 21.0338 1.62582C21.1476 1.65249 21.2593 1.68711 21.3701 1.72432C21.4251 1.74277 21.4792 1.76377 21.5332 1.78477C21.3486 1.71303 21.5291 1.78393 21.562 1.79909C21.7874 1.90308 21.9995 2.0343 22.2 2.18042C22.0418 2.06514 22.1965 2.17862 22.224 2.20129C22.268 2.23753 22.3103 2.27576 22.3525 2.31393C22.4371 2.39033 22.5164 2.47231 22.5937 2.55591C22.6324 2.59778 22.6692 2.64132 22.706 2.6849C22.7286 2.71174 22.8444 2.86656 22.7268 2.70902C22.8067 2.81603 22.8784 2.92885 22.9466 3.04365C23.0054 3.14258 23.0573 3.24543 23.1068 3.34924C23.1222 3.38149 23.1956 3.56293 23.1211 3.37811C23.1428 3.43205 23.1621 3.48693 23.1813 3.5418C23.2201 3.65242 23.2511 3.76559 23.2794 3.87928C23.2937 3.9367 23.3053 3.9947 23.3169 4.05269C23.325 4.09324 23.3596 4.35665 23.3342 4.14358C23.3512 4.2846 23.3567 4.42668 23.3578 4.56854C23.3611 4.98761 23.7038 5.33736 24.1239 5.33736C24.5391 5.33736 24.8934 4.98765 24.8901 4.56854C24.8811 3.42828 24.4602 2.3667 23.7154 1.51111C22.9821 0.668799 21.9246 0.171793 20.8301 0.0404351C20.2737 -0.026342 19.6954 0.00972623 19.1366 0.00972623C16.6025 0.00972623 14.0685 0.00972623 11.5344 0.00972623C9.33363 0.00972623 7.13289 0.00972623 4.93214 0.00972623C4.80601 0.00972623 4.67984 0.00972623 4.55372 0.00972623C3.42108 0.00972623 2.35472 0.445315 1.50704 1.18852C0.66763 1.92443 0.172363 2.98561 0.0414655 4.08397C0.00521685 4.38815 0.0108643 4.69208 0.0108643 4.99754C0.0108643 7.50621 0.0108643 10.0149 0.0108643 12.5236C0.0108643 13.3704 -0.0447345 14.2434 0.0956195 15.0819C0.453772 17.2214 2.4611 18.7745 4.58152 18.7745C5.02473 18.7745 5.4679 18.7745 5.91107 18.7745C5.65571 18.5183 5.40031 18.262 5.14495 18.0057C5.14495 19.7284 5.14495 21.4512 5.14495 23.1739C5.14495 23.871 5.96685 24.1564 6.45283 23.7175C8.07828 22.2495 9.70378 20.7814 11.3293 19.3133C11.6112 19.0586 11.8931 18.804 12.1751 18.5493C11.9945 18.6244 11.8139 18.6995 11.6334 18.7745C13.0502 18.7745 14.467 18.7745 15.8839 18.7745C16.3015 18.7745 16.65 18.4248 16.65 18.0057C16.65 15.8641 16.65 13.7225 16.65 11.5809C16.65 11.4699 16.65 11.3589 16.65 11.2478C16.65 11.14 16.6544 11.0325 16.662 10.9249C16.6646 10.8888 16.689 10.6848 16.6612 10.8901C16.6692 10.8311 16.68 10.7725 16.6907 10.7139C16.7156 10.5787 16.7509 10.4456 16.7903 10.3141C16.807 10.2582 16.8263 10.2031 16.8456 10.1481C16.8572 10.115 16.9313 9.93145 16.8535 10.1159C16.8983 10.0096 16.9504 9.90658 17.0046 9.80492C17.0587 9.70374 17.1195 9.60639 17.1824 9.51062C17.2138 9.46282 17.2473 9.41651 17.2808 9.37021C17.1611 9.53566 17.3127 9.33291 17.3384 9.30251C17.4856 9.12827 17.6519 8.97109 17.8275 8.8262C17.9775 8.70248 17.6966 8.9225 17.8538 8.80796C17.9 8.77431 17.9476 8.74281 17.9952 8.71127C18.1068 8.63746 18.2237 8.57227 18.3423 8.51081C18.3934 8.48431 18.4457 8.4602 18.498 8.43608C18.6766 8.3537 18.3445 8.49635 18.5284 8.42496C18.637 8.38279 18.7483 8.34826 18.8603 8.31641C18.9737 8.28416 19.0891 8.26 19.2049 8.2386C19.2412 8.23188 19.441 8.20758 19.2372 8.23205C19.3171 8.22248 19.3974 8.21738 19.4776 8.21286C19.6215 8.20482 19.7668 8.20846 19.9109 8.20846C20.5058 8.20846 21.1007 8.20846 21.6956 8.20846C22.5051 8.20846 23.3145 8.20846 24.124 8.20846C24.5417 8.20846 24.8902 7.85876 24.8902 7.43965C24.8902 6.48258 24.8902 5.52552 24.8902 4.56845C24.8902 4.14934 24.5417 3.79964 24.124 3.79964C23.7064 3.79964 23.3578 4.14943 23.3578 4.56854Z" fill="#65B78F"/>
<path d="M38.4653 11.2292C38.4653 13.341 38.4653 15.4528 38.4653 17.5646C38.4653 18.5937 38.4653 19.6228 38.4653 20.6518C38.4653 20.7245 38.4653 20.7972 38.4653 20.8699C38.4653 21.0142 38.4567 21.1579 38.4419 21.3014C38.4629 21.0973 38.4415 21.2967 38.4353 21.3338C38.4255 21.3923 38.413 21.4503 38.4005 21.5082C38.3716 21.642 38.3322 21.7734 38.289 21.9032C38.2706 21.9583 38.2497 22.0126 38.2287 22.0669C38.3002 21.8816 38.2296 22.0627 38.2145 22.0957C38.1665 22.2003 38.1115 22.3015 38.0543 22.4013C37.9973 22.5006 37.9336 22.596 37.868 22.6896C37.7562 22.8491 37.9708 22.5636 37.8498 22.716C37.8025 22.7754 37.7522 22.8324 37.7014 22.889C37.6253 22.9738 37.5436 23.0534 37.4602 23.131C37.4185 23.1698 37.3751 23.2068 37.3317 23.2436C37.3049 23.2664 37.1507 23.3825 37.3076 23.2645C37.1091 23.4138 36.8932 23.5385 36.6697 23.6459C36.6349 23.6622 36.5998 23.678 36.5646 23.6933C36.659 23.6535 36.6665 23.6494 36.5869 23.6812C36.4966 23.7163 36.4041 23.7457 36.3113 23.7737C36.1418 23.8248 35.9678 23.8597 35.7931 23.8863C36.0051 23.854 35.7392 23.8869 35.6982 23.8898C35.6167 23.8957 35.5347 23.8976 35.4529 23.8976C35.4008 23.8976 35.3487 23.8976 35.2966 23.8976C34.8971 23.8976 34.4975 23.8976 34.0979 23.8976C33.6803 23.8976 33.3318 24.2473 33.3318 24.6664C33.3318 26.3891 33.3318 28.1119 33.3318 29.8346C33.7678 29.6534 34.2037 29.4721 34.6397 29.291C33.0142 27.8229 31.3887 26.3548 29.7632 24.8867C29.4968 24.646 29.2303 24.4055 28.9639 24.1648C28.7912 24.0088 28.6011 23.8976 28.3573 23.8976C28.2651 23.8976 28.1728 23.8976 28.0806 23.8976C26.966 23.8976 25.8514 23.8976 24.7368 23.8976C23.4071 23.8976 22.0773 23.8976 20.7475 23.8976C20.4095 23.8976 20.0714 23.8976 19.7334 23.8976C19.7109 23.8976 19.6883 23.8976 19.6658 23.8976C19.6235 23.8976 19.5813 23.8966 19.539 23.8956C19.4784 23.8942 19.4179 23.8898 19.3574 23.8855C19.3175 23.8823 19.2776 23.8785 19.2378 23.874C19.3425 23.8893 19.3512 23.8904 19.264 23.8773C19.0319 23.8419 18.8045 23.7794 18.5834 23.7013C18.5504 23.6896 18.3675 23.6153 18.5513 23.6933C18.4983 23.6708 18.4463 23.6458 18.3944 23.6209C18.2738 23.5631 18.1577 23.496 18.044 23.4256C17.9954 23.3955 17.9482 23.3633 17.901 23.3311C17.8725 23.3116 17.7169 23.1947 17.8727 23.3155C17.7826 23.2457 17.6975 23.1698 17.6141 23.0922C17.5307 23.0145 17.4526 22.9314 17.3766 22.8466C17.3385 22.8041 17.3023 22.76 17.2662 22.7159C17.2137 22.6497 17.2188 22.6564 17.2815 22.7359C17.259 22.7052 17.2369 22.6742 17.2152 22.6428C17.0833 22.4546 16.9731 22.252 16.8775 22.0432C16.7954 21.8639 16.9375 22.1972 16.8664 22.0126C16.8454 21.9583 16.827 21.903 16.8086 21.8478C16.7652 21.7177 16.732 21.5844 16.703 21.4504C16.6905 21.3923 16.6807 21.3337 16.6708 21.2751C16.6372 21.074 16.689 21.4454 16.668 21.2415C16.6554 21.1202 16.6516 20.9983 16.6507 20.8764C16.6506 20.8618 16.6507 20.8473 16.6507 20.8327C16.6507 20.7292 16.6507 20.6257 16.6507 20.5222C16.6507 19.4235 16.6507 18.3248 16.6507 17.2263C16.6507 15.8377 16.6507 14.4491 16.6507 13.0606C16.6507 12.5931 16.6507 12.1257 16.6507 11.6582C16.6507 11.54 16.6507 11.4217 16.6507 11.3034C16.6507 11.2808 16.6507 11.2583 16.6507 11.2358C16.6507 11.2131 16.651 11.1905 16.6511 11.1678C16.6516 11.1068 16.655 11.0458 16.6584 10.9849C16.6606 10.9443 16.6908 10.6759 16.6619 10.8897C16.6935 10.6557 16.7525 10.4262 16.827 10.2025C16.8454 10.1474 16.8663 10.0931 16.8872 10.0389C16.8158 10.2242 16.8864 10.043 16.9015 10.01C16.9574 9.88794 17.0225 9.77038 17.091 9.65506C17.1494 9.55665 17.2145 9.46237 17.2815 9.36972C17.1666 9.52849 17.2797 9.37319 17.3024 9.3456C17.3385 9.30149 17.3766 9.25905 17.4146 9.21666C17.4907 9.13182 17.5724 9.05226 17.6557 8.97463C17.6975 8.9358 17.7408 8.89889 17.7843 8.86199C17.8134 8.83757 17.8429 8.81362 17.8727 8.79012C17.7928 8.85206 17.7867 8.85786 17.8544 8.80752C18.0398 8.67242 18.2399 8.55886 18.4464 8.45975C18.4785 8.44433 18.6593 8.37061 18.4751 8.44543C18.5289 8.42359 18.5836 8.40426 18.6383 8.38497C18.767 8.3395 18.899 8.30418 19.0318 8.27308C19.0893 8.25959 19.1475 8.24883 19.2056 8.23811C19.2419 8.23139 19.4417 8.20709 19.2379 8.23156C19.3581 8.21715 19.4792 8.2114 19.6001 8.2085C19.628 8.2078 19.6561 8.20802 19.6842 8.20802C20.258 8.20802 20.8319 8.20802 21.4058 8.20802C24.0493 8.20802 26.6929 8.20802 29.3364 8.20802C31.3293 8.20802 33.3221 8.20802 35.315 8.20802C35.382 8.20802 35.449 8.20797 35.516 8.2085C35.597 8.20916 35.6778 8.2143 35.7585 8.2201C35.7985 8.2233 35.8384 8.22713 35.8782 8.23156C35.7735 8.21623 35.7647 8.21513 35.8519 8.22827C36.0072 8.25195 36.1603 8.28898 36.3113 8.33195C36.3859 8.35317 36.4594 8.37847 36.5326 8.4043C36.5689 8.41744 36.605 8.43115 36.6409 8.44543C36.5471 8.40444 36.5392 8.40114 36.6174 8.43558C36.7574 8.49762 36.892 8.57129 37.0233 8.64984C37.0724 8.67919 37.1201 8.71073 37.1678 8.74228C37.2 8.76358 37.4055 8.91585 37.2433 8.79003C37.3633 8.88317 37.4755 8.98606 37.5835 9.09286C37.6916 9.19974 37.7907 9.31533 37.8853 9.4343C37.7579 9.27386 37.9109 9.47762 37.9329 9.51004C37.9758 9.57321 38.0153 9.63863 38.0543 9.70426C38.1327 9.83632 38.2 9.97475 38.2618 10.1153C38.1781 9.92502 38.2758 10.1648 38.289 10.2024C38.3148 10.276 38.3366 10.3509 38.3578 10.426C38.4007 10.578 38.4305 10.7335 38.4541 10.8896C38.4219 10.6768 38.4547 10.9436 38.4576 10.9848C38.4634 11.0662 38.4647 11.1478 38.4653 11.2292C38.4687 11.6483 38.8113 11.9981 39.2314 11.9981C39.6466 11.9981 40.0009 11.6484 39.9976 11.2292C39.9886 10.089 39.5678 9.0274 38.8229 8.17186C38.0896 7.3295 37.0321 6.83249 35.9376 6.70114C35.3812 6.63436 34.8029 6.67043 34.2441 6.67043C31.71 6.67043 29.176 6.67043 26.6419 6.67043C24.4411 6.67043 22.2404 6.67043 20.0396 6.67043C19.9134 6.67043 19.7873 6.67043 19.6612 6.67043C18.5285 6.67043 17.4622 7.10602 16.6145 7.84922C15.7751 8.58509 15.2798 9.64632 15.1489 10.7447C15.1126 11.0489 15.1183 11.3528 15.1183 11.6582C15.1183 14.1669 15.1183 16.6756 15.1183 19.1842C15.1183 20.0311 15.0627 20.9041 15.203 21.7426C15.5584 23.8656 17.5546 25.4352 19.6658 25.4352C21.8757 25.4352 24.0856 25.4352 26.2955 25.4352C26.9889 25.4352 27.6822 25.4352 28.3756 25.4352C28.1951 25.3601 28.0145 25.2851 27.8339 25.21C29.4594 26.6781 31.0849 28.1462 32.7104 29.6143C32.9923 29.8689 33.2743 30.1236 33.5562 30.3782C34.0422 30.8171 34.8641 30.5316 34.8641 29.8346C34.8641 28.1119 34.8641 26.3891 34.8641 24.6664C34.6087 24.9226 34.3533 25.1789 34.0979 25.4352C34.6105 25.4352 35.1255 25.4512 35.6377 25.4308C36.7581 25.3861 37.8186 24.9151 38.6265 24.14C39.439 23.3604 39.8885 22.2934 39.9855 21.1812C40.0084 20.9188 39.9976 20.6503 39.9976 20.3872C39.9976 17.8646 39.9976 15.3421 39.9976 12.8196C39.9976 12.2895 39.9976 11.7593 39.9976 11.2292C39.9976 10.81 39.6491 10.4603 39.2314 10.4603C38.8138 10.4603 38.4653 10.8102 38.4653 11.2292Z" fill="#65B78F"/>
<path d="M25.6482 16.2544C25.6758 17.3168 26.5001 18.144 27.5588 18.1717C28.6173 18.1994 29.4428 17.275 29.4694 16.2544C29.497 15.1922 28.5759 14.3637 27.5588 14.337C26.5003 14.3093 25.6748 15.2337 25.6482 16.2544C25.6373 16.6735 26.0049 17.0232 26.4143 17.0232C26.8402 17.0232 27.1695 16.6732 27.1804 16.2544C27.1816 16.2099 27.2141 16.0227 27.1778 16.22C27.1884 16.1625 27.2077 16.107 27.2269 16.052C27.1644 16.2313 27.2289 16.0688 27.2518 16.0302C27.3485 15.8677 27.1452 16.146 27.2714 16.0062C27.298 15.9767 27.4424 15.8632 27.288 15.978C27.3339 15.9439 27.3845 15.9169 27.4348 15.8901C27.2702 15.9778 27.4215 15.8992 27.4676 15.8857C27.5532 15.8678 27.5434 15.8663 27.438 15.881C27.4782 15.8768 27.5184 15.8746 27.5588 15.8746C27.6046 15.8735 27.7886 15.9083 27.593 15.872C27.6503 15.8826 27.7056 15.902 27.7605 15.9213C27.5818 15.8585 27.7437 15.9232 27.7822 15.9463C27.9441 16.0433 27.6667 15.8393 27.806 15.9659C27.8354 15.9926 27.9485 16.1375 27.8341 15.9825C27.8681 16.0286 27.895 16.0794 27.9217 16.1299C27.8343 15.9647 27.9126 16.1166 27.9261 16.1628C27.9439 16.2487 27.9455 16.2388 27.9308 16.1331C27.935 16.1734 27.9371 16.2138 27.9371 16.2543C27.9383 16.3003 27.9036 16.485 27.9397 16.2886C27.9292 16.3462 27.9098 16.4017 27.8907 16.4567C27.9532 16.2774 27.8887 16.4399 27.8657 16.4785C27.7691 16.641 27.9723 16.3626 27.8461 16.5024C27.8196 16.5319 27.6752 16.6454 27.8296 16.5307C27.7837 16.5648 27.7331 16.5918 27.6828 16.6186C27.8474 16.5309 27.6961 16.6094 27.65 16.623C27.5644 16.6408 27.5742 16.6424 27.6796 16.6277C27.6394 16.6319 27.5992 16.634 27.5588 16.634C27.513 16.6352 27.329 16.6004 27.5246 16.6367C27.4673 16.6261 27.412 16.6066 27.3571 16.5874C27.5358 16.6501 27.3739 16.5854 27.3354 16.5624C27.1735 16.4654 27.4509 16.6694 27.3116 16.5427C27.2822 16.516 27.1691 16.3712 27.2834 16.5261C27.2494 16.48 27.2225 16.4292 27.1958 16.3788C27.2832 16.544 27.2049 16.3921 27.1914 16.3459C27.1736 16.2599 27.1721 16.2698 27.1867 16.3755C27.1825 16.3352 27.1804 16.2949 27.1804 16.2544C27.1695 15.8355 26.8402 15.4855 26.4143 15.4855C26.0049 15.4855 25.6373 15.8352 25.6482 16.2544Z" fill="#65B78F"/>
<path d="M31.3684 16.2544C31.396 17.3168 32.2202 18.144 33.2789 18.1717C34.3374 18.1994 35.163 17.275 35.1896 16.2544C35.2172 15.1922 34.296 14.3637 33.2789 14.337C32.2205 14.3093 31.395 15.2337 31.3684 16.2544C31.3575 16.6735 31.7251 17.0232 32.1345 17.0232C32.5604 17.0232 32.8897 16.6732 32.9006 16.2544C32.9018 16.2099 32.9343 16.0227 32.898 16.22C32.9086 16.1625 32.9279 16.107 32.9471 16.052C32.8846 16.2313 32.9491 16.0688 32.972 16.0302C33.0687 15.8677 32.8654 16.146 32.9916 16.0062C33.0182 15.9767 33.1626 15.8632 33.0082 15.978C33.054 15.9439 33.1047 15.9169 33.155 15.8901C32.9904 15.9778 33.1416 15.8992 33.1877 15.8857C33.2734 15.8678 33.2635 15.8663 33.1582 15.881C33.1983 15.8768 33.2385 15.8746 33.2789 15.8746C33.3247 15.8735 33.5087 15.9083 33.3131 15.872C33.3704 15.8826 33.4257 15.902 33.4806 15.9213C33.3019 15.8585 33.4638 15.9232 33.5023 15.9463C33.6642 16.0433 33.3869 15.8393 33.5262 15.9659C33.5555 15.9926 33.6687 16.1375 33.5543 15.9825C33.5883 16.0286 33.6152 16.0794 33.6419 16.1299C33.5545 15.9647 33.6328 16.1166 33.6463 16.1628C33.6641 16.2487 33.6656 16.2388 33.651 16.1331C33.6552 16.1734 33.6573 16.2138 33.6573 16.2543C33.6585 16.3003 33.6238 16.485 33.6599 16.2886C33.6493 16.3462 33.63 16.4017 33.6108 16.4567C33.6733 16.2774 33.6089 16.4399 33.5859 16.4785C33.4892 16.641 33.6925 16.3626 33.5663 16.5024C33.5397 16.5319 33.3953 16.6454 33.5498 16.5307C33.5038 16.5648 33.4532 16.5918 33.4029 16.6186C33.5675 16.5309 33.4162 16.6094 33.3701 16.623C33.2845 16.6408 33.2943 16.6424 33.3997 16.6277C33.3595 16.6319 33.3193 16.634 33.2789 16.634C33.2331 16.6352 33.0491 16.6004 33.2448 16.6367C33.1874 16.6261 33.1321 16.6066 33.0773 16.5874C33.256 16.6502 33.0941 16.5854 33.0556 16.5624C32.8936 16.4654 33.1711 16.6694 33.0318 16.5427C33.0024 16.516 32.8893 16.3712 33.0036 16.5261C32.9696 16.48 32.9427 16.4292 32.916 16.3788C33.0034 16.544 32.9252 16.3921 32.9116 16.3459C32.8939 16.2599 32.8923 16.2698 32.907 16.3755C32.9027 16.3352 32.9006 16.2949 32.9006 16.2544C32.8897 15.8355 32.5604 15.4855 32.1345 15.4855C31.7252 15.4855 31.3575 15.8352 31.3684 16.2544Z" fill="#65B78F"/>
<path d="M19.9255 16.2544C19.9532 17.3168 20.7774 18.144 21.8362 18.1717C22.8946 18.1994 23.7202 17.275 23.7467 16.2544C23.7744 15.1922 22.8533 14.3637 21.8362 14.337C20.7777 14.3093 19.9521 15.2337 19.9255 16.2544C19.9146 16.6735 20.2822 17.0232 20.6917 17.0232C21.1175 17.0232 21.4469 16.6732 21.4578 16.2544C21.4589 16.2099 21.4914 16.0227 21.4551 16.22C21.4657 16.1625 21.4851 16.107 21.5042 16.052C21.4417 16.2313 21.5062 16.0688 21.5291 16.0302C21.6258 15.8677 21.4225 16.146 21.5487 16.0062C21.5754 15.9767 21.7197 15.8632 21.5653 15.978C21.6112 15.9439 21.6618 15.9169 21.7121 15.8901C21.5475 15.9778 21.6989 15.8992 21.7449 15.8857C21.8306 15.8678 21.8207 15.8663 21.7154 15.881C21.7555 15.8768 21.7957 15.8746 21.8361 15.8746C21.8819 15.8735 22.0659 15.9083 21.8703 15.872C21.9277 15.8826 21.9829 15.902 22.0378 15.9213C21.8591 15.8585 22.021 15.9232 22.0595 15.9463C22.2214 16.0433 21.944 15.8393 22.0833 15.9659C22.1127 15.9926 22.2258 16.1375 22.1115 15.9825C22.1454 16.0286 22.1724 16.0794 22.1991 16.1299C22.1117 15.9647 22.1899 16.1166 22.2035 16.1628C22.2212 16.2487 22.2228 16.2388 22.2081 16.1331C22.2123 16.1734 22.2144 16.2138 22.2144 16.2543C22.2156 16.3003 22.181 16.485 22.2171 16.2886C22.2065 16.3462 22.1872 16.4017 22.168 16.4567C22.2305 16.2774 22.166 16.4399 22.1431 16.4785C22.0464 16.641 22.2497 16.3626 22.1235 16.5024C22.0969 16.5319 21.9525 16.6454 22.1069 16.5307C22.061 16.5648 22.0104 16.5918 21.9601 16.6186C22.1247 16.5309 21.9734 16.6094 21.9273 16.623C21.8417 16.6408 21.8516 16.6424 21.9569 16.6277C21.9168 16.6319 21.8765 16.634 21.8362 16.634C21.7903 16.6352 21.6063 16.6004 21.802 16.6367C21.7446 16.6261 21.6893 16.6066 21.6345 16.5874C21.8132 16.6501 21.6512 16.5854 21.6128 16.5624C21.4508 16.4654 21.7282 16.6694 21.5889 16.5427C21.5595 16.516 21.4464 16.3712 21.5607 16.5261C21.5268 16.48 21.4998 16.4292 21.4731 16.3788C21.5606 16.544 21.4823 16.3921 21.4688 16.3459C21.451 16.2599 21.4494 16.2698 21.4641 16.3755C21.4599 16.3352 21.4578 16.2949 21.4578 16.2544C21.4469 15.8355 21.1175 15.4855 20.6917 15.4855C20.2823 15.4855 19.9146 15.8352 19.9255 16.2544Z" fill="#65B78F"/>
</svg>
