<svg width="56" height="56" viewBox="0 0 56 56" fill="none" xmlns="http://www.w3.org/2000/svg">
<path d="M52.3687 0.0157025H3.24064C2.39969 0.00625865 1.58896 0.328946 0.984498 0.913693C0.38004 1.49844 0.0306618 2.29803 0.0122311 3.13884V52.4774C-0.0267858 52.9244 0.0277872 53.3746 0.172467 53.7993C0.317147 54.2239 0.548758 54.6138 0.852524 54.944C1.15629 55.2742 1.52554 55.5374 1.93673 55.7169C2.34791 55.8964 2.79199 55.9883 3.24064 55.9866H52.3687C52.8403 56.0297 53.3156 55.9686 53.761 55.8075C54.2063 55.6464 54.6108 55.3893 54.9457 55.0544C55.2806 54.7195 55.5377 54.3151 55.6987 53.8697C55.8598 53.4244 55.921 52.949 55.8778 52.4774V3.13884C55.8703 2.69747 55.7713 2.26245 55.5872 1.86126C55.4031 1.46006 55.1377 1.1014 54.808 0.80792C54.4782 0.514441 54.0912 0.292518 53.6714 0.156162C53.2515 0.0198061 52.8079 -0.0280203 52.3687 0.0157025ZM45.3504 3.34939C45.8157 3.34939 46.262 3.53425 46.5911 3.86329C46.9201 4.19234 47.105 4.63862 47.105 5.10396C47.105 5.5693 46.9201 6.01559 46.5911 6.34463C46.262 6.67368 45.8157 6.85854 45.3504 6.85854C44.885 6.85854 44.4388 6.67368 44.1097 6.34463C43.7807 6.01559 43.5958 5.5693 43.5958 5.10396C43.5958 4.63862 43.7807 4.19234 44.1097 3.86329C44.4388 3.53425 44.885 3.34939 45.3504 3.34939ZM5.13558 3.34939H40.0165C40.4818 3.34939 40.9281 3.53425 41.2572 3.86329C41.5862 4.19234 41.7711 4.63862 41.7711 5.10396C41.7621 5.56649 41.5743 6.00757 41.2472 6.33469C40.9201 6.66181 40.479 6.84955 40.0165 6.85854H5.13558C4.67024 6.85854 4.22396 6.67368 3.89491 6.34463C3.56587 6.01559 3.38101 5.5693 3.38101 5.10396C3.38101 4.63862 3.56587 4.19234 3.89491 3.86329C4.22396 3.53425 4.67024 3.34939 5.13558 3.34939ZM52.3687 50.5825C52.3687 51.0478 52.1838 51.4941 51.8548 51.8232C51.5257 52.1522 51.0794 52.3371 50.6141 52.3371H5.13558C4.67024 52.3371 4.22396 52.1522 3.89491 51.8232C3.56587 51.4941 3.38101 51.0478 3.38101 50.5825V10.3677H52.3687V50.5825ZM50.4737 6.85854C50.0084 6.85854 49.5621 6.67368 49.2331 6.34463C48.904 6.01559 48.7192 5.5693 48.7192 5.10396C48.7192 4.63862 48.904 4.19234 49.2331 3.86329C49.5621 3.53425 50.0084 3.34939 50.4737 3.34939C50.9391 3.34939 51.3854 3.53425 51.7144 3.86329C52.0435 4.19234 52.2283 4.63862 52.2283 5.10396C52.2283 5.5693 52.0435 6.01559 51.7144 6.34463C51.3854 6.67368 50.9391 6.85854 50.4737 6.85854Z" fill="#2D995E"/>
<path d="M34.8224 31.4229C34.3571 31.4229 33.9108 31.6077 33.5817 31.9368C33.2527 32.2658 33.0678 32.7121 33.0678 33.1774C33.0678 34.5734 32.5133 35.9123 31.5261 36.8994C30.539 37.8866 29.2001 38.4411 27.8041 38.4411C26.4081 38.4411 25.0692 37.8866 24.0821 36.8994C23.095 35.9123 22.5404 34.5734 22.5404 33.1774C22.5404 32.7121 22.3555 32.2658 22.0265 31.9368C21.6974 31.6077 21.2512 31.4229 20.7858 31.4229C20.3205 31.4229 19.8742 31.6077 19.5452 31.9368C19.2161 32.2658 19.0312 32.7121 19.0312 33.1774C19.0313 35.5041 19.9555 37.7355 21.6008 39.3808C23.246 41.026 25.4774 41.9503 27.8041 41.9503C30.1308 41.9503 32.3622 41.026 34.0075 39.3808C35.6527 37.7355 36.577 35.5041 36.577 33.1774C36.568 32.7149 36.3803 32.2738 36.0531 31.9467C35.726 31.6196 35.2849 31.4318 34.8224 31.4229Z" fill="#2D995E"/>
<path d="M19.103 26.1593C19.2044 25.3474 18.9866 24.5278 18.4957 23.8733C18.0048 23.2187 17.279 22.7802 16.4712 22.6501C15.6505 22.7638 14.9074 23.1953 14.402 23.8517C13.8965 24.5081 13.6693 25.3369 13.7691 26.1593C13.7691 28.0893 14.9623 29.6684 16.401 29.6684C17.8397 29.6684 19.0329 28.0893 19.0329 26.1593H19.103Z" fill="#2D995E"/>
<path d="M39.1397 22.6843C37.701 22.6843 36.543 24.2284 36.543 26.1935C36.543 28.1586 37.701 29.7026 39.1397 29.7026C40.5785 29.7026 41.7716 28.1235 41.7716 26.1935C41.8729 25.3816 41.6552 24.562 41.1643 23.9075C40.6733 23.2529 39.9475 22.8144 39.1397 22.6843Z" fill="#2D995E"/>
</svg>
