<svg width="56" height="56" viewBox="0 0 56 56" fill="none" xmlns="http://www.w3.org/2000/svg">
<circle cx="28" cy="28" r="28" fill="#2D995E" fill-opacity="0.15"/>
<path d="M22.7062 13.1259C23.0062 13.0059 23.1262 12.6459 23.0062 12.3459C22.8862 12.046 22.5262 11.926 22.2263 12.046C15.627 14.9257 13.8872 20.505 17.0668 28.6641C17.1868 28.9041 17.3068 29.2041 17.3068 29.2641C17.3068 29.3241 17.3668 29.3841 17.3668 29.4441C17.9667 30.5239 17.5468 35.1434 17.1868 37.8431C17.1268 38.1431 17.3668 38.503 17.6668 38.503C17.9667 38.563 18.3267 38.3231 18.3267 38.0231C18.5067 36.8232 19.3466 30.8239 18.4467 28.9641C18.3867 28.7841 18.3267 28.6041 18.1467 28.1842C17.1268 25.4245 13.8272 17.0254 22.7062 13.1259Z" fill="#2D995E"/>
<path d="M38.3027 26.7445C38.0027 26.5045 37.9427 26.0845 38.1227 25.4846C38.6026 23.8648 37.4028 14.8058 33.5632 12.4661C33.2632 12.2861 32.9033 12.4061 32.7233 12.646C32.5433 12.946 32.6633 13.306 32.9033 13.4859C36.1429 15.4057 37.3428 23.7448 36.9828 25.1247C36.6828 26.1445 36.8628 26.9844 37.4028 27.5844C37.8827 28.3643 39.3825 29.8041 39.2626 30.4641C39.2026 30.704 38.6026 30.944 38.4226 31.004C38.0627 30.944 37.7627 31.244 37.7627 31.6039V33.1638L37.4028 33.5237C37.2228 33.7037 37.1628 34.0037 37.2228 34.2436L37.7027 35.2035C38.0027 35.8035 37.2828 36.7634 36.8628 37.3033C36.1429 38.1432 34.6431 38.0832 31.1635 37.0633C30.5635 36.8834 29.9636 37.1833 29.7236 37.7233L27.3839 42.8827C27.2639 43.1827 27.3839 43.5426 27.6838 43.6626C27.9838 43.7826 28.3438 43.6626 28.4637 43.3626L30.8035 38.0832C34.3431 39.1031 36.5029 39.4031 37.7627 37.9632C38.9026 36.6434 39.2626 35.5035 38.7826 34.5436L38.5426 34.0037L38.7826 33.7637C38.9026 33.6437 39.0226 33.4637 39.0226 33.2837V31.9039C39.7425 31.6039 40.3424 31.244 40.4624 30.5241C40.6424 29.3242 38.3627 26.8045 38.3027 26.7445Z" fill="#2D995E"/>
</svg>
