<svg width="190" height="41" viewBox="0 0 190 41" fill="none" xmlns="http://www.w3.org/2000/svg">
<g clip-path="url(#clip0)">
<path d="M91.0722 16.7594C90.6233 18.3634 90.1744 18.5847 89.1644 18.6953L88.2104 19.5803L88.3227 19.8569C89.2205 19.8016 90.1183 19.7462 91.0161 19.7462C91.9139 19.7462 92.8679 19.8016 93.8218 19.8569L94.7196 18.9719L94.6074 18.6953C92.5312 18.6953 92.2506 18.4188 92.5873 16.7594C92.6434 16.3722 92.7556 16.0404 92.8679 15.5979L95.5613 4.36957H95.6174L97.7497 17.6997C97.8619 18.4188 97.9181 19.1931 97.9181 19.8016C98.4792 19.7462 99.0403 19.6909 99.6015 19.6909C100.106 19.6909 100.668 19.7462 101.173 19.8016C101.397 19.3037 101.678 18.6953 101.958 18.1422L108.972 4.31426H109.029L107.457 14.9341C107.401 15.4872 107.289 16.151 107.177 16.5382C106.84 18.3634 106.447 18.6953 105.269 18.6953L104.315 19.5803L104.427 19.8569C105.942 19.8016 107.457 19.7462 108.972 19.7462C110.207 19.7462 111.441 19.8016 112.62 19.8569L113.518 18.9719L113.405 18.6953C111.834 18.6953 111.554 18.4741 111.778 16.5382L113.069 5.80768C113.069 5.53112 113.125 5.25456 113.181 4.978C113.405 3.87177 113.798 3.5399 115.201 3.5399L116.099 2.65491L115.987 2.37835C114.696 2.43366 113.349 2.48897 112.003 2.48897C110.824 2.48897 109.646 2.43366 108.523 2.37835L101.565 16.0404H101.509L99.9381 2.37835C98.9281 2.43366 97.7497 2.48897 96.6836 2.48897C95.5052 2.48897 94.2707 2.43366 93.1484 2.37835L92.2506 3.26334L92.3628 3.5399C93.7096 3.5399 94.2707 3.70583 94.1585 4.53551C94.1585 4.70144 94.0462 4.978 93.9901 5.19925L91.0722 16.7594Z" fill="white"/>
<path d="M118.231 12.611C118.568 11.4495 119.297 8.90512 121.149 8.90512C122.945 8.90512 122.72 10.9517 122.496 12.5004L118.231 12.611ZM125.47 16.151L125.189 15.9297C124.516 16.5935 122.832 18.2528 120.812 18.2528C117.838 18.2528 117.895 14.7682 118.119 13.4407H126.031C126.199 12.9982 126.368 12.5557 126.48 12.1132C126.929 9.79011 125.133 7.79889 121.486 7.79889C116.772 7.79889 114.584 11.726 114.079 14.2151C113.574 17.036 114.64 20.1334 118.848 20.1334C121.822 20.1334 124.067 18.4187 124.684 17.8656L125.47 16.151Z" fill="white"/>
<path d="M127.097 16.8147C126.76 18.5294 126.48 18.8059 125.47 18.8059L124.516 19.6356L124.628 19.9122C125.975 19.8569 127.321 19.8015 128.668 19.8015C129.678 19.8015 130.632 19.8569 131.642 19.9122L132.54 19.0825L132.428 18.8059C131.193 18.8059 131.025 18.64 131.361 16.8147L132.091 13.0535C132.484 11.0623 133.382 9.62418 135.233 9.62418C136.804 9.62418 136.804 10.7857 136.524 12.1685L135.626 16.8147C135.289 18.5294 135.065 18.8059 134.223 18.8059L133.325 19.6356L133.438 19.9122C134.672 19.8569 135.963 19.8015 137.197 19.8015C138.207 19.8015 139.161 19.8569 140.171 19.9122L141.069 19.0825L140.957 18.8059C139.722 18.8059 139.554 18.64 139.891 16.8147L140.62 13.0535C141.013 10.8963 141.967 9.62418 143.763 9.62418C145.053 9.62418 145.39 10.5645 145.109 12.1685L144.211 16.8147C143.875 18.5294 143.65 18.8059 142.809 18.8059L141.855 19.6356L141.967 19.9122C143.258 19.8569 144.492 19.8015 145.727 19.8015C146.905 19.8015 148.027 19.8569 149.149 19.9122L150.047 19.0825L149.935 18.8059C148.308 18.8059 148.083 18.64 148.42 16.8147L149.206 12.5004C149.598 10.5092 149.149 7.8542 145.727 7.8542C143.145 7.8542 141.406 9.67949 140.62 10.3432C140.396 9.7348 139.778 7.8542 136.973 7.8542C135.346 7.8542 133.83 8.68388 132.035 10.3985L131.979 10.3432L132.652 7.79889L127.153 8.62857L126.255 9.45824L126.367 9.7348C127.882 9.7348 128.219 10.0114 127.939 11.4495L127.097 16.8147Z" fill="white"/>
<path d="M155.939 13.7173C156.5 10.8964 157.735 9.40296 159.25 9.40296C161.326 9.40296 161.27 12.1685 160.877 14.381C160.26 17.4785 159.025 19.1378 157.454 19.1378C155.771 19.1378 155.322 17.2019 155.939 13.7173ZM151.057 16.9254C150.833 18.0869 150.608 18.8613 150.328 19.7463C150.945 19.6909 151.674 19.525 152.292 19.525C155.322 19.525 156.22 20.1888 158.576 20.1888C161.719 20.1888 164.637 17.8103 165.366 13.9385C166.096 10.0667 163.963 7.85423 161.101 7.85423C158.969 7.85423 157.566 9.01578 156.556 9.84545L158.408 1.49338L152.572 2.32305L151.618 3.15273L151.73 3.42929C153.302 3.42929 153.582 3.70585 153.302 5.14395L151.057 16.9254Z" fill="white"/>
<path d="M170.473 12.611C170.809 11.4495 171.539 8.90512 173.391 8.90512C175.186 8.90512 174.962 10.9517 174.737 12.5004L170.473 12.611ZM177.655 16.151L177.319 15.9297C176.645 16.5935 174.962 18.2528 172.998 18.2528C170.024 18.2528 170.08 14.7682 170.304 13.4407H178.216C178.385 12.9982 178.609 12.5557 178.665 12.1132C179.114 9.79011 177.319 7.79889 173.671 7.79889C168.958 7.79889 166.713 11.726 166.264 14.2151C165.759 17.036 166.769 20.1334 171.034 20.1334C174.008 20.1334 176.196 18.4187 176.87 17.8656L177.655 16.151Z" fill="white"/>
<path d="M179.282 16.9807C178.946 18.6953 178.665 18.9719 177.655 18.9719L176.757 19.8016L176.87 20.0781C178.216 20.0228 179.563 19.9675 180.91 19.9675C182.088 19.9675 183.21 20.0228 184.333 20.0781L185.23 19.2484L185.118 18.9719C183.491 18.9719 183.266 18.806 183.603 16.9807L183.884 15.4873C184.22 13.662 185.23 10.6751 186.184 10.6751C186.802 10.6751 187.194 11.2282 187.868 12.0026L190 9.23702L189.888 8.68391C189.271 8.35203 188.597 8.02016 188.036 8.02016C186.689 8.02016 185.623 9.79014 184.277 11.3942L184.22 11.3389L185.23 8.02016L179.563 8.79453L178.609 9.6242L178.721 9.90076C180.292 9.90076 180.573 10.1773 180.292 11.6154L179.282 16.9807Z" fill="white"/>
<path d="M97.5251 31.0852H99.2646C102.912 31.0852 103.866 32.7445 103.417 34.6804C102.856 37.2801 100.836 38.4416 98.0862 38.4416C96.1783 38.4416 96.0661 37.8332 96.3467 36.561L97.5251 31.0852ZM99.2085 23.3968H100.836C103.193 23.3968 104.708 23.8946 104.146 26.3284C103.361 29.9789 100.443 29.9789 97.7495 29.9789L99.2085 23.3968ZM91.6332 36.6163C91.2965 38.331 90.7915 38.4969 89.557 38.4969L88.603 39.3819L88.6591 39.6585C90.1742 39.5479 91.577 39.5479 93.2604 39.5479C95.3366 39.5479 97.5812 39.6585 99.6012 39.6585C104.09 39.6585 107.064 37.7226 107.682 34.9017C108.467 31.3617 105.213 30.6427 102.912 30.3661V30.3108C105.156 29.9236 107.906 29.094 108.523 26.2177C109.197 23.2862 106.672 22.18 103.866 22.18C102.351 22.18 99.2085 22.2906 97.0761 22.2906C95.5611 22.2906 94.4388 22.2353 93.1482 22.18L92.1943 23.065L92.2504 23.3415C94.1582 23.3415 94.4388 23.5075 94.1021 25.2221L91.6332 36.6163Z" fill="white"/>
<path d="M112.62 32.4126C112.956 31.2511 113.798 28.7067 115.65 28.7067C117.445 28.7067 117.165 30.7533 116.884 32.302L112.62 32.4126ZM119.69 35.9526L119.409 35.7313C118.736 36.3951 116.996 38.0544 114.976 38.0544C112.002 38.0544 112.227 34.5698 112.451 33.2423H120.363C120.532 32.7998 120.756 32.3573 120.868 31.9148C121.373 29.5917 119.69 27.6005 116.042 27.6005C111.385 27.6005 109.028 31.5276 108.411 34.0167C107.794 36.8376 108.748 39.935 112.956 39.935C115.93 39.935 118.175 38.2204 118.848 37.6672L119.69 35.9526Z" fill="white"/>
<path d="M121.373 36.6164C121.036 38.3311 120.7 38.6076 119.69 38.6076L118.736 39.4373L118.848 39.7139C120.195 39.6585 121.542 39.6032 122.888 39.6032C123.954 39.6032 124.964 39.6585 126.031 39.7139L126.985 38.8842L126.872 38.6076C125.469 38.6076 125.301 38.4417 125.694 36.6164L126.311 33.9061C126.76 31.749 127.546 29.4259 129.79 29.4259C131.53 29.4259 131.417 30.7534 131.137 32.0808L130.127 36.6164C129.79 38.3311 129.51 38.6076 128.668 38.6076L127.714 39.4373L127.826 39.7139C129.117 39.6585 130.351 39.6032 131.586 39.6032C132.708 39.6032 133.83 39.6585 135.009 39.7139L135.963 38.8842L135.85 38.6076C134.223 38.6076 133.999 38.4417 134.391 36.6164L135.289 32.468C135.794 30.1449 135.289 27.6559 131.698 27.6559C129.341 27.6559 127.546 29.3152 126.704 30.0896L126.648 30.0343L127.377 27.6559L121.878 28.4303L120.924 29.2599L121.036 29.5365C122.552 29.5365 122.888 29.8131 122.552 31.2512L121.373 36.6164Z" fill="white"/>
<path d="M140.564 32.4126C140.901 31.2511 141.742 28.7067 143.594 28.7067C145.39 28.7067 145.109 30.7533 144.828 32.302L140.564 32.4126ZM147.634 35.9526L147.354 35.7313C146.68 36.3951 144.941 38.0544 142.921 38.0544C139.947 38.0544 140.115 34.5698 140.339 33.2423H148.251C148.42 32.7998 148.644 32.3573 148.756 31.9148C149.261 29.5917 147.578 27.6005 143.931 27.6005C139.217 27.6005 136.86 31.5276 136.299 34.0167C135.682 36.8376 136.636 39.935 140.844 39.935C143.818 39.935 146.119 38.2204 146.736 37.6672L147.634 35.9526Z" fill="white"/>
<path d="M149.15 36.6163C148.813 38.331 148.476 38.6075 147.466 38.6075L146.512 39.4372L146.624 39.7138C147.971 39.6585 149.318 39.6032 150.665 39.6032C151.899 39.6032 153.077 39.6585 154.368 39.7138L155.322 38.8841L155.21 38.6075C153.358 38.6075 153.077 38.4416 153.526 36.6163L155.154 29.1492L157.51 29.3152L158.52 28.3749L158.408 28.0983L155.378 28.2642C155.546 26.7708 155.603 24.8902 155.771 24.0605C155.995 23.0096 156.5 22.7884 156.837 22.7884C157.454 22.7884 158.015 24.1712 158.464 25.2774L160.541 22.5671L160.597 21.9034C159.923 21.5715 159.194 21.295 158.408 21.295C156.22 21.295 152.067 23.8393 151.45 26.7708L151.113 28.2642L149.879 28.0983L148.869 29.0386L148.981 29.3152L150.889 29.1492L149.15 36.6163Z" fill="white"/>
<path d="M163.122 26.1624C164.412 26.1624 165.703 25.1115 165.983 23.8394C166.264 22.5672 165.422 21.5716 164.188 21.5716C162.897 21.5716 161.607 22.6225 161.326 23.8394C161.045 25.1115 161.887 26.1624 163.122 26.1624ZM158.857 36.6164C158.52 38.331 158.184 38.6076 157.174 38.6076L156.22 39.4373L156.332 39.7138C157.679 39.6585 159.025 39.6032 160.372 39.6032C161.494 39.6032 162.617 39.6585 163.795 39.7138L164.749 38.8842L164.637 38.6076C163.009 38.6076 162.785 38.4417 163.178 36.6164L165.142 27.6559L159.362 28.4302L158.408 29.2599L158.52 29.5365C160.035 29.5365 160.372 29.813 160.035 31.2511L158.857 36.6164Z" fill="white"/>
<path d="M172.38 38.6075L172.268 38.2757C171.932 38.331 171.539 38.4416 171.202 38.4416C169.743 38.4416 169.799 37.8332 170.416 35.0676L171.819 29.0939L174.176 29.2598L175.13 28.3195L175.074 28.043L172.044 28.2089L173.11 23.8393L172.885 23.6181L168.453 25.3327L167.835 28.2089L166.432 28.043L165.479 28.9833L165.591 29.2598L167.667 29.0939L166.04 36.4504C165.591 38.6075 165.422 39.9903 169.238 39.9903C169.855 39.9903 170.529 39.935 171.202 39.7691L172.38 38.6075Z" fill="white"/>
<path d="M182.929 31.3065L183.996 30.698C183.996 30.0896 184.164 29.3152 184.332 28.4856C183.322 27.9878 182.088 27.6559 180.853 27.6559C177.262 27.6559 175.242 29.5365 174.793 31.4171C173.839 35.6761 180.348 34.4039 179.731 37.1142C179.507 38.1098 178.609 38.9395 177.43 38.9395C175.41 38.9395 175.074 36.7823 175.13 35.5655L174.905 35.3995L173.502 36.3398C173.278 37.2248 173.054 38.0545 172.829 38.6629C173.615 39.1607 175.13 39.9904 177.543 39.9904C180.797 39.9904 183.266 38.0545 183.827 35.7314C184.669 31.749 177.879 32.5786 178.384 30.3109C178.609 29.2599 179.394 28.7068 180.292 28.7068C181.976 28.7068 182.481 29.979 182.705 31.1958L182.929 31.3065Z" fill="white"/>
<path d="M43.8246 3.76116C48.9309 7.07986 51.5121 12.4451 52.2977 17.9763C47.6403 20.4653 40.4578 20.2994 35.5198 18.2528C36.1371 12.7217 38.8866 7.52235 43.8246 3.76116ZM56.7868 22.3459C57.2918 16.9807 56.394 11.4495 53.6445 7.02455C50.2777 1.05088 42.0851 0.387139 36.9788 3.70584C30.8624 8.13078 28.9546 15.2107 29.1229 22.2906C29.1229 29.2046 31.9847 36.3398 38.8866 39.3266C43.3757 40.7647 48.8187 40.4328 52.6344 38.0544L55.2156 30.6427H54.7106C53.7567 32.0808 52.6344 33.187 51.0071 33.9614C47.1914 35.3995 41.6362 35.3995 38.6061 32.7445C36.0248 30.2002 35.1831 25.6093 35.4637 22.2906L56.7868 22.3459Z" fill="white"/>
<path d="M17.2829 1.71458C13.9161 1.38271 10.6615 3.76112 9.42705 6.74795C9.37094 5.30985 9.59539 4.1483 9.48316 2.82082C6.56527 4.70142 3.3668 6.58202 0.505021 8.46262C0.673361 8.62855 0.617247 8.29668 0.785588 8.46262C1.90786 8.62855 3.08624 9.73479 3.19846 10.6751L3.25458 25.3327C3.08624 29.5917 3.92794 34.4591 1.85174 38.1097C1.40284 38.9394 0 39.05 0 39.7138L12.2888 39.5478V39.3819C10.381 39.05 9.70762 37.1694 9.42705 35.7313V14.3257C9.93207 11.8366 10.8299 9.45823 12.9622 7.68825C14.2528 6.91389 16.1607 6.91389 17.5635 7.35638C19.0224 7.85419 19.9764 9.40292 20.4253 10.841V33.5188C20.5936 35.3994 20.0886 37.1694 18.8541 38.5522C18.5174 39.1606 17.3952 38.8841 17.5635 39.6584H29.7401L29.5156 39.3266C27.72 38.8288 26.9344 36.9482 26.6539 35.2335L26.5416 10.7857C26.5416 8.24137 25.7561 6.08421 24.1288 4.1483C22.2209 2.48895 19.8641 1.88052 17.2829 1.71458Z" fill="white"/>
<path d="M41.1312 15.5979C40.7945 15.5979 40.8506 17.3126 41.3556 18.0869C41.8606 18.4188 42.1973 18.2529 42.6462 17.921C42.6462 17.1466 42.9829 15.7085 42.1412 15.3766L41.1312 15.5979Z" fill="white"/>
<path d="M42.5902 11.7814C43.2074 11.5601 42.3096 9.62422 44.498 10.6751C44.498 10.6751 45.1714 10.6198 45.1153 12.3898L46.7426 12.8876C46.6865 11.4495 46.9109 10.9517 48.8188 10.5645C48.9871 10.3986 49.1555 9.62423 48.6504 9.45829C45.452 10.3986 42.8708 7.07989 39.6723 9.12642C39.3356 9.45829 39.5039 10.0667 39.8406 10.2327C41.3557 9.90078 40.9629 10.8411 41.1312 11.5048L42.5902 11.7814Z" fill="white"/>
<path d="M38.2133 11.5048C38.2133 11.5048 39.8406 12.9429 39.8406 13.496C39.8406 14.1598 38.0449 15.1001 38.0449 15.1001C38.0449 15.1001 44.0491 15.1554 49.0993 13.9938C44.2174 12.3898 38.2133 11.5048 38.2133 11.5048Z" fill="white"/>
<path d="M45.3398 15.3213C45.3398 16.2616 45.5082 17.0359 45.9571 17.8656C46.2938 18.1975 46.911 18.0315 47.2477 17.6997C47.3038 16.3722 47.2477 14.0491 45.3398 15.3213Z" fill="white"/>
<path d="M73.3965 33.5742C71.6008 34.8464 68.9635 35.0123 66.8873 34.5145C65.1478 33.9061 63.8572 32.302 63.5205 30.7533C63.0155 27.1027 64.6428 23.8393 67.6729 21.7375C69.4124 20.4653 71.6008 20.0228 73.3965 18.4188C73.3403 23.065 73.3403 28.5961 73.3965 33.5742ZM81.589 34.5145C80.8034 34.3486 79.7373 33.7401 79.5689 32.9104L79.5128 10.6751C79.6812 8.02016 79.0078 5.64176 77.0999 3.87178C72.7792 0.553077 66.0456 1.65931 61.6126 3.70585C60.9954 5.91832 59.9853 8.13079 59.5364 10.3433C62.1177 7.68829 66.0456 6.41612 69.9174 6.91393C71.208 7.41173 72.6109 8.29672 73.2842 9.67951C73.6209 11.2836 74.1259 13.1642 72.2181 14.4363C66.7751 17.2572 58.3019 18.6953 57.6847 26.439C56.8991 30.532 57.348 35.1229 60.5465 37.9438C63.4083 40.3222 68.234 40.7647 71.6008 39.216C72.0497 37.7779 72.5548 36.0632 73.5087 34.791C74.0137 37.3354 76.7071 39.3819 79.12 39.8244C83.4408 41.5391 82.1502 35.8973 84.1141 34.0167C82.7674 34.2379 82.5429 34.791 81.589 34.5145Z" fill="white"/>
</g>
<defs>
<clipPath id="clip0">
<rect width="190" height="40.2116" fill="white"/>
</clipPath>
</defs>
</svg>
