<svg width="56" height="56" viewBox="0 0 56 56" fill="none" xmlns="http://www.w3.org/2000/svg">
<circle cx="28" cy="28" r="28" fill="#2D995E" fill-opacity="0.15"/>
<path d="M39.6653 33.3119L33.3678 21.482C32.9853 20.7463 32.2496 20.2755 31.4256 20.1872L26.8055 19.7458C26.6583 19.0395 26.3935 18.3332 26.0404 17.6858C25.4224 16.5087 24.5396 15.5082 23.5979 14.9196C22.4796 14.2428 21.3614 14.1251 20.4786 14.5959C19.5663 15.0668 19.066 16.0673 19.0072 17.3621C18.9777 18.4804 19.3014 19.7458 19.9194 20.9523C20.2726 21.6291 20.714 22.2471 21.2142 22.7474L18.9777 26.8084C18.5952 27.5441 18.5658 28.3975 18.9777 29.1332L25.2458 40.9336C25.6872 41.7576 26.5406 42.2285 27.4235 42.2285C27.806 42.2285 28.1886 42.1402 28.5711 41.9342L38.6648 36.5784C39.8419 35.9604 40.2833 34.489 39.6653 33.3119ZM20.8317 17.421C20.8611 16.8324 21.0377 16.3616 21.332 16.2145C21.6262 16.0673 22.0971 16.1556 22.5973 16.4793C23.2742 16.8913 23.9216 17.6564 24.3924 18.5392C24.569 18.8629 24.7161 19.2161 24.8338 19.5692L24.6278 19.5398C23.6567 19.4515 22.715 19.9518 22.2442 20.8052L22.1559 20.9817C21.9499 20.7169 21.7439 20.3932 21.5379 20.04C21.0671 19.1866 20.8317 18.2155 20.8317 17.421ZM37.782 34.9893L27.6883 40.3451C27.394 40.4922 27.0409 40.3745 26.8938 40.1097L20.5963 28.2798C20.508 28.1032 20.508 27.8972 20.5963 27.7206L22.6856 23.8951C23.2447 24.1893 23.8039 24.3365 24.3336 24.3365C24.4807 24.3365 24.6278 24.3365 24.775 24.307C25.2753 24.2188 25.599 23.7479 25.5107 23.2477C25.4224 22.7474 24.9515 22.3943 24.4513 22.512C24.2159 22.5414 23.8922 22.4825 23.5685 22.306L23.8627 21.7468C23.9804 21.5409 24.157 21.4231 24.3924 21.4231C24.4219 21.4231 24.4219 21.4231 24.4513 21.4231L31.2491 22.0411C31.455 22.0705 31.6316 22.1883 31.7199 22.3648L38.0174 34.1653C38.1645 34.4596 38.0763 34.8127 37.782 34.9893Z" fill="#2D995E"/>
<path d="M32.8032 31.2228C32.1852 29.7514 30.449 29.1335 29.0659 29.8692L28.3007 30.2811C27.7122 30.5754 27.0059 30.34 26.7411 29.722C26.5351 29.1923 26.7999 28.5449 27.3002 28.2801L28.183 27.8092C28.5067 27.6327 28.9187 27.7209 29.1542 27.9858C29.213 28.0741 29.3307 28.0741 29.419 28.0446L30.4195 27.5149C30.5372 27.4561 30.5667 27.309 30.5078 27.1912C29.8898 26.2496 28.6539 25.8964 27.5945 26.3673L27.0648 25.3667C27.0059 25.249 26.8588 25.2196 26.7705 25.2785L25.77 25.8081C25.6523 25.867 25.6228 26.0141 25.6817 26.1024L26.2114 27.103C25.0637 27.9269 24.7106 29.5455 25.5346 30.7814C26.2997 31.9585 27.8888 32.2528 29.1247 31.6054L29.7721 31.2523C30.3607 30.958 31.0669 31.1934 31.3318 31.8114C31.5378 32.3411 31.2729 32.9885 30.7727 33.2533L29.8898 33.7242C29.5661 33.9007 29.1542 33.8125 28.9187 33.5476C28.8599 33.4593 28.7422 33.4593 28.6539 33.4888L27.6533 34.0184C27.5356 34.0773 27.5062 34.2244 27.5651 34.3422C28.183 35.2838 29.419 35.637 30.4784 35.1661L31.0081 36.1667C31.0669 36.2844 31.2141 36.3138 31.3024 36.2549L32.3029 35.7252C32.4206 35.6664 32.45 35.5193 32.3912 35.431L31.8615 34.401C32.8326 33.6653 33.274 32.3705 32.8032 31.2228Z" fill="#2D995E"/>
</svg>
