<svg width="56" height="56" viewBox="0 0 56 56" fill="none" xmlns="http://www.w3.org/2000/svg">
<circle cx="28" cy="28" r="28" fill="#E0F0E7"/>
<g clip-path="url(#clip0)">
<path d="M40 20.557C39.117 20.949 38.168 21.213 37.172 21.332C38.189 20.723 38.97 19.758 39.337 18.608C38.386 19.172 37.332 19.582 36.21 19.803C35.313 18.846 34.032 18.248 32.616 18.248C29.437 18.248 27.101 21.214 27.819 24.293C23.728 24.088 20.1 22.128 17.671 19.149C16.381 21.362 17.002 24.257 19.194 25.723C18.388 25.697 17.628 25.476 16.965 25.107C16.911 27.388 18.546 29.522 20.914 29.997C20.221 30.185 19.462 30.229 18.69 30.081C19.316 32.037 21.134 33.46 23.29 33.5C21.22 35.123 18.612 35.848 16 35.54C18.179 36.937 20.768 37.752 23.548 37.752C32.69 37.752 37.855 30.031 37.543 23.106C38.505 22.411 39.34 21.544 40 20.557Z" fill="#20623E"/>
</g>
<defs>
<clipPath id="clip0">
<rect width="24" height="24" fill="white" transform="translate(16 16)"/>
</clipPath>
</defs>
</svg>
